<svg width="239" height="55" viewBox="0 0 239 55" fill="none" xmlns="http://www.w3.org/2000/svg">
<path d="M238.286 29.693C236.787 32.141 236.312 34.85 235.27 37.415C234.895 38.338 234.626 39.289 234.226 40.204C233.809 41.157 232.911 41.602 231.653 41.537C230.378 41.471 229.692 40.873 229.326 39.922C228.508 37.796 226.956 36.184 224.259 34.573C224.44 37.129 224.418 37.086 221.363 38.104C220.464 38.404 219.729 39.023 218.91 39.485C218.091 39.946 217.329 40.49 216.244 40.53C215.133 40.571 214.255 40.27 213.765 39.444C213.342 38.732 213.306 37.926 214.046 37.399C215.921 36.065 217.706 34.614 220.029 33.76C220.989 33.407 221.974 33.627 222.896 33.811C223.497 33.102 222.81 32.752 222.392 32.371C220.663 30.791 219.088 29.089 217.015 27.776C215.862 27.045 215.402 26.181 215.815 25.006C216.232 23.823 217.217 23.403 218.656 23.191C223.098 22.534 227.569 22.141 232.067 21.86C234.815 21.689 236.888 22.381 238.286 24.317C238.286 26.109 238.286 27.901 238.286 29.693Z" fill="#126EC3"/>
<path d="M2.35692 34.6407C0.358854 34.5567 -0.592569 33.0977 0.390997 31.6067C1.14692 30.4617 2.27523 29.5227 3.36024 28.5637C4.96983 27.1387 6.99019 26.0257 8.14325 24.2407C8.62576 23.4947 9.66871 23.1617 10.7562 23.4517C11.8746 23.7497 12.6181 24.3727 12.7938 25.3617C12.9658 26.3337 12.4561 27.0917 11.6556 27.7607C9.21836 29.7957 6.55716 31.6577 4.37105 33.8907C3.8539 34.4187 3.13511 34.7057 2.35692 34.6407Z" fill="#126EC3"/>
<path d="M20.7443 20.1949C18.9962 20.1919 17.8394 18.7279 18.5705 17.4399C18.964 16.7479 19.6915 16.2909 20.3979 15.8399C22.6087 14.4299 24.8456 13.0469 27.075 11.6559C27.3138 11.5069 27.5551 11.3549 27.8186 11.2389C29.3082 10.5789 30.7086 10.7779 31.5449 11.7579C32.333 12.6799 32.1661 13.6039 30.8052 14.5189C29.1832 15.6089 27.4437 16.5849 25.7623 17.6179C24.7219 18.2569 23.6851 18.9019 22.6644 19.5619C22.0953 19.9299 21.4656 20.1439 20.7443 20.1949Z" fill="#126EC3"/>
<path d="M50.3795 3.72071C52.1747 3.71871 53.4737 4.51671 53.6717 5.60971C53.8523 6.61371 52.9949 7.52971 51.4497 7.78971C48.4965 8.28671 45.7314 9.2167 42.9366 10.0867C42.3774 10.2607 41.8429 10.5177 41.2651 10.6177C39.9525 10.8447 38.8377 10.5437 38.2798 9.49371C37.7874 8.56671 38.1313 7.72371 39.1013 7.11471C39.6469 6.77171 40.2766 6.47771 40.9249 6.28571C43.6479 5.47971 46.3895 4.71371 49.1311 3.95071C49.5976 3.82071 50.1011 3.77071 50.3795 3.72071Z" fill="#126EC3"/>
<path d="M72.2494 4.72277C70.3837 4.49777 67.8957 4.25678 65.4386 3.88178C63.6868 3.61478 62.9432 2.86878 63.0632 1.82878C63.1882 0.743776 64.4056 -0.0622206 66.1376 0.00377935C68.0355 0.0757793 69.9259 0.301777 71.8176 0.480777C72.503 0.545777 73.1438 0.689779 73.8787 0.642779C75.951 0.508779 77.0199 1.19078 77.0323 2.45478C77.0447 3.66978 75.8595 4.58678 74.0792 4.71878C73.682 4.74778 73.2775 4.72277 72.2494 4.72277Z" fill="#126EC3"/>
<path d="M117.212 21.2419C116.847 21.1289 116.224 21.0329 115.739 20.7689C113.227 19.4039 111.036 17.7179 109.068 15.8869C107.855 14.7589 108.663 13.1679 110.345 12.7959C111.221 12.6019 111.957 12.8589 112.584 13.2659C113.598 13.9249 114.526 14.6709 115.515 15.3579C116.488 16.0349 117.331 16.7909 118.682 17.1289C120.276 17.5279 120.774 18.4609 120.42 19.5599C120.117 20.4989 118.725 21.2859 117.212 21.2419Z" fill="#126EC3"/>
<path d="M100.477 7.43997C100.455 9.13197 98.4309 10.438 96.6369 9.92097C93.7048 9.07597 90.9817 7.82397 88.4813 6.32097C87.3926 5.66697 87.3023 4.48497 88.0471 3.71097C88.8154 2.91197 89.8151 2.65697 90.9793 3.11597C92.1509 3.57697 93.2841 4.10097 94.4582 4.55597C95.7028 5.03797 96.8052 5.72797 98.3356 5.74697C99.7188 5.76397 100.449 6.55597 100.477 7.43997Z" fill="#126EC3"/>
<path d="M182.067 54.3286C180.378 54.4346 179.278 54.4016 178.187 54.2116C177.045 54.0126 176.46 53.4136 176.371 52.5116C176.281 51.5976 176.83 50.9836 177.861 50.5986C178.72 50.2776 179.616 50.2916 180.52 50.2946C182.228 50.3016 183.891 50.3256 185.449 49.5056C186.593 48.9046 187.793 49.1816 188.636 50.0836C189.425 50.9246 189.189 52.0936 188.026 52.9066C186.145 54.2216 183.806 54.2876 182.067 54.3286Z" fill="#126EC3"/>
<path d="M149.859 44.9309C149.056 44.9369 148.469 44.8529 147.934 44.5959C145.948 43.6409 143.959 42.6809 142.239 41.4239C140.816 40.3839 140.624 39.4099 141.512 38.4499C142.407 37.4799 143.635 37.3539 145.227 38.2239C147.137 39.2669 148.966 40.3969 151.065 41.2049C152.321 41.6889 152.755 42.6059 152.296 43.6599C151.882 44.6109 150.92 45.0129 149.859 44.9309Z" fill="#126EC3"/>
<path d="M128.586 26.2609C128.987 26.2409 129.526 26.4789 130.011 26.7589C131.722 27.7429 133.474 28.6919 135.086 29.7749C136.609 30.7969 136.786 32.0229 135.78 32.9499C134.851 33.8059 133.582 33.8239 132.03 32.9429C130.31 31.9669 128.594 30.9829 126.937 29.9409C126.005 29.3559 125.525 28.5369 126.026 27.5759C126.443 26.7759 127.209 26.2839 128.586 26.2609Z" fill="#126EC3"/>
<path d="M163.775 52.2467C161.747 51.8827 159.549 51.1367 157.795 49.7457C156.899 49.0347 156.927 47.7437 157.713 47.0857C158.563 46.3747 159.602 46.1607 160.711 46.6737C162.363 47.4377 163.956 48.1547 166.032 47.7267C166.941 47.5397 167.739 48.1417 168.057 48.9037C168.36 49.6317 168.302 50.3737 167.587 50.9407C166.639 51.6907 165.552 52.2567 163.775 52.2467Z" fill="#126EC3"/>
<path d="M200.055 48.4009C199.094 48.4989 198.036 48.2099 197.559 47.0849C197.086 45.9739 197.674 45.1679 198.805 44.6179C200.267 43.9059 201.763 43.2319 203.292 42.6179C204.507 42.1299 205.708 42.2829 206.53 43.1909C207.323 44.0679 207.315 45.0809 206.415 45.8949C204.833 47.3239 202.915 48.3119 200.055 48.4009Z" fill="#126EC3"/>
</svg>
