<svg width="76" height="67" viewBox="0 0 76 67" fill="none" xmlns="http://www.w3.org/2000/svg">
<path d="M26.3249 4.21603V42.4348H25.638H21.929H21.2422V4.21603C21.2422 2.85593 22.3412 1.63184 23.8522 1.63184C24.5391 1.63184 25.2259 1.90386 25.638 2.4479C26.0502 2.85593 26.3249 3.53598 26.3249 4.21603Z" fill="#C2E3F7"/>
<path d="M29.7591 46.6513V49.3715H17.6719V46.6513C17.6719 44.3392 19.5951 42.571 21.793 42.571H25.502C27.9733 42.571 29.7591 44.3392 29.7591 46.6513Z" fill="#C2E3F7"/>
<path d="M68.22 29.9225C68.9069 30.6026 69.1816 31.4186 69.1816 32.3707C69.1816 34.2748 67.6705 35.771 65.7474 35.771H34.9792C34.0176 35.771 33.1934 35.3629 32.5065 34.8189C31.8197 34.1388 31.5449 33.3228 31.5449 32.3707C31.5449 30.4666 33.056 28.9705 34.9792 28.9705H65.8861C66.8463 28.9705 67.6705 29.2425 68.22 29.9225Z" fill="#C2E3F7"/>
<path d="M43.4941 56.1725H45.2799V49.372H37.4498L34.9785 35.771H65.8841L62.7245 53.3163L60.664 64.6051H43.4941V56.1725Z" fill="#C2E3F7"/>
<path d="M43.4948 56.1721V64.6047H40.0605H4.07227V56.1721H38.8255H43.4948Z" fill="#C2E3F7"/>
<path d="M45.2803 49.3716V56.1721H43.4944H38.8252H4.07195H2.28613V49.3716H17.8089H29.7588H37.4502H45.2803Z" fill="#C2E3F7"/>
<path d="M29.7582 51.0035C28.7979 51.0035 27.9723 50.1875 27.9723 49.2354V46.5152C27.9723 45.1551 26.8734 44.067 25.4997 44.067C24.5381 44.067 23.7139 43.251 23.7139 42.2989C23.7139 41.3468 24.5381 40.5308 25.4997 40.5308C28.7965 40.5308 31.4052 43.1149 31.4052 46.3792V49.0994C31.544 50.1875 30.7197 51.0035 29.7582 51.0035Z" fill="#0B93E2"/>
<path d="M17.8083 51.003C16.8467 51.003 16.0225 50.187 16.0225 49.2349V46.5147C16.0225 43.2504 18.6325 40.6663 21.9294 40.6663C22.8909 40.6663 23.7152 41.4823 23.7152 42.4344C23.7152 43.3865 22.8909 44.2025 21.9294 44.2025C20.5557 44.2025 19.4567 45.2906 19.4567 46.6507V49.3709C19.4553 50.187 18.7698 51.003 17.8083 51.003Z" fill="#0B93E2"/>
<path d="M26.3242 44.2032H21.1042C20.1426 44.2032 19.3184 43.3872 19.3184 42.4351V4.21631C19.3184 1.90414 21.2416 0 23.5768 0C24.6758 0 25.7748 0.408032 26.599 1.22409C27.4232 2.04015 27.8353 3.12823 27.8353 4.21631V42.4351C28.1101 43.3872 27.2858 44.2032 26.3242 44.2032ZM22.89 40.803H24.6758V4.21631C24.6758 3.94429 24.5384 3.67227 24.4011 3.67227C24.2637 3.53626 23.989 3.40025 23.8516 3.40025C23.4395 3.40025 23.0274 3.80828 23.0274 4.21631V40.803H22.89Z" fill="#0B93E2"/>
<path d="M60.6637 66.3728H43.4938C42.5322 66.3728 41.708 65.5567 41.708 64.6046C41.708 63.6525 42.5322 62.8365 43.4938 62.8365H59.29L64.2353 35.3625C64.3727 34.4104 65.3343 33.8664 66.1585 34.0024C67.1188 34.1384 67.6696 35.0905 67.5322 35.9065L62.3122 64.8766C62.1748 65.6927 61.4879 66.3728 60.6637 66.3728Z" fill="#0B93E2"/>
<path d="M37.4503 51.0036C36.626 51.0036 35.9392 50.4596 35.8018 49.6435L33.1918 36.0425C33.0544 35.0905 33.6039 34.2744 34.5655 34.0024C35.5257 33.8664 36.3513 34.4104 36.626 35.3625L39.2361 48.9635C39.3734 49.9155 38.8239 50.7316 37.8624 51.0036C37.7263 51.0036 37.5876 51.0036 37.4503 51.0036Z" fill="#0B93E2"/>
<path d="M45.2799 57.804H43.4941C42.5325 57.804 41.7083 56.988 41.7083 56.0359C41.7083 55.0838 42.5325 54.2678 43.4941 54.2678V51.0035H4.07163V54.4038C5.03322 54.4038 5.85745 55.2198 5.85745 56.1719C5.85745 57.124 5.03322 57.94 4.07163 57.94H2.28582C1.32423 57.94 0.5 57.124 0.5 56.1719V49.3714C0.5 48.4193 1.32423 47.6033 2.28582 47.6033H45.2799C46.2415 47.6033 47.0657 48.4193 47.0657 49.3714V56.1719C46.9284 56.988 46.2415 57.804 45.2799 57.804Z" fill="#0B93E2"/>
<path d="M43.4944 66.3722H4.07195C3.11036 66.3722 2.28613 65.5562 2.28613 64.6041V56.0355C2.28613 55.0834 3.11036 54.2673 4.07195 54.2673H43.6318C44.5934 54.2673 45.4176 55.0834 45.4176 56.0355V64.6041C45.2803 65.5562 44.456 66.3722 43.4944 66.3722ZM5.72038 62.972H41.846V57.8036H5.72038V62.972Z" fill="#0B93E2"/>
<path d="M65.8844 37.4024H34.9788C33.6051 37.4024 32.3688 36.8584 31.2698 35.9063C30.3083 34.9543 29.7588 33.5941 29.7588 32.234C29.7588 29.3778 32.0941 27.0657 34.9788 27.0657H65.8858C67.2595 27.0657 68.4958 27.6097 69.5948 28.5618C70.5563 29.5139 71.1058 30.8739 71.1058 32.234C70.9671 35.0903 68.6318 37.4024 65.8844 37.4024ZM34.9788 30.6019C34.0173 30.6019 33.193 31.418 33.193 32.3701C33.193 32.7781 33.3304 33.1861 33.7425 33.5941C34.0173 33.8662 34.5667 34.1382 34.9788 34.1382H65.8858C66.8473 34.1382 67.6716 33.3221 67.6716 32.3701C67.6716 31.962 67.5342 31.554 67.1221 31.146C66.71 30.7379 66.2979 30.6019 65.8858 30.6019H34.9788Z" fill="#0B93E2"/>
<path d="M67.67 57.396C65.7468 57.396 63.961 56.716 62.5873 55.4919L61.6257 54.5398L47.6153 42.0269C46.9285 41.3468 46.7911 40.2588 47.4779 39.5787C48.1648 38.8987 49.2637 38.7627 49.9506 39.4427L64.9226 52.9077C65.8842 53.7238 67.1205 54.1318 68.4942 53.8598C70.5547 53.5877 72.0658 51.8196 72.0658 49.7795C72.0658 49.2354 71.9284 48.6914 71.6537 48.1473L69.4558 43.115C69.0437 42.2989 69.4558 41.2108 70.4174 40.9388C71.2402 40.5308 72.3406 40.9388 72.6153 41.8909L74.8132 46.9233C75.2253 47.8753 75.5001 48.8274 75.5001 49.9155C75.5001 53.5877 72.7527 56.852 69.0437 57.396C68.4942 57.396 68.0821 57.396 67.67 57.396Z" fill="#0B93E2"/>
</svg>
