<svg width="70" height="71" viewBox="0 0 70 71" fill="none" xmlns="http://www.w3.org/2000/svg">
<path d="M1.1665 29.1667L67.6665 31.5001L66.4998 47.8334L59.4998 58.3334L43.1665 67.6667H24.4998L10.4998 58.3334L3.49984 47.8334L1.1665 29.1667Z" fill="#C2E3F7"/>
<path d="M69.8836 34.8544V30.4285C69.8836 29.6132 69.1836 28.9143 68.3694 28.9143H38.436L10.0166 1.65973C7.80364 -0.553245 4.07654 -0.553245 1.74709 1.65973C-0.582363 3.87271 -0.582363 7.59983 1.74709 9.92929L4.6589 12.7246C4.77538 12.8411 4.89184 13.074 5.12479 13.1905L21.3145 29.0308H1.51413C0.698821 29.0308 0 29.7296 0 30.5449V34.9709C0 49.297 8.61897 61.6431 20.9651 67.0009H1.51413C0.698821 67.0009 0 67.6997 0 68.515C0 69.3303 0.698821 70.0291 1.51413 70.0291H68.4859C69.3012 70.0291 70 69.3303 70 68.515C70 67.6997 69.3012 67.0009 68.4859 67.0009H49.0349C52.995 65.2538 56.6057 62.8078 59.7504 59.6631C66.2717 53.0241 69.8836 44.1722 69.8836 34.8544ZM66.8541 37.7662H59.7493V31.9426H67.087C66.9717 34.2721 67.087 35.5533 66.8541 37.7662ZM53.9256 45.1028C53.9256 42.6569 51.9456 40.6769 49.4997 40.6769C47.0526 40.6769 45.0737 42.6569 45.0737 45.1028C45.0737 45.9182 44.3737 46.617 43.5584 46.617C42.7443 46.617 42.0443 45.9182 42.0443 45.1028C42.0443 42.6569 40.0642 40.6769 37.6183 40.6769C35.1724 40.6769 33.1923 42.6569 33.1923 45.1028C33.1923 45.9182 32.4924 46.617 31.6782 46.617C30.8629 46.617 30.1629 45.9182 30.1629 45.1028V31.9414H56.3692V49.4123C56.3692 50.2276 55.6704 50.9265 54.8551 50.9265C54.0398 50.9265 53.341 50.2276 53.341 49.4123V45.1028H53.9256ZM3.84241 3.75508C5.00713 2.59035 6.8707 2.59035 7.91895 3.75508C8.03542 3.87155 7.45308 3.28919 10.0155 5.73511L5.82246 9.81165L3.72593 7.71515C2.67768 6.6669 2.67768 4.80333 3.84241 3.75508ZM7.91895 11.9082L12.112 7.71515L34.2418 29.0296H25.3898L7.91895 11.9082ZM2.91181 31.9426H27.604V37.7662H3.14474C2.91179 35.5533 2.91181 34.3885 2.91181 31.9426ZM34.9418 66.8844C19.218 66.8844 6.17305 55.5865 3.49418 40.678H27.7205V45.104C27.7205 47.5499 29.7005 49.53 32.1464 49.53C34.5935 49.53 36.5724 47.5499 36.5724 45.104C36.5724 44.2887 37.2724 43.5899 38.0877 43.5899C38.9018 43.5899 39.6018 44.2887 39.6018 45.104C39.6018 47.5499 41.5819 49.53 44.0278 49.53C46.4737 49.53 48.4537 47.5499 48.4537 45.104C48.4537 44.2887 49.1538 43.5899 49.9679 43.5899C50.7832 43.5899 51.4832 44.2887 51.4832 45.104V49.53C51.4832 51.9759 53.4621 53.9559 55.9092 53.9559C58.3551 53.9559 60.3351 51.9759 60.3351 49.53V40.7945H67.0905C63.7105 55.5854 50.6656 66.8844 34.9418 66.8844Z" fill="#0B93E2"/>
<path d="M24.8077 56.7498C20.9641 56.7498 16.0722 52.6733 16.0722 48.0144C16.0722 47.1991 15.3734 46.5002 14.5581 46.5002C13.7428 46.5002 13.0439 47.1991 13.0439 48.0144C13.0439 54.4204 19.4499 59.6616 24.6912 59.6616C25.5065 59.6616 26.2054 58.9628 26.2054 58.1475C26.2065 57.3322 25.6242 56.7498 24.8077 56.7498Z" fill="#0B93E2"/>
<path d="M32.0298 13.0728C37.6205 13.0728 42.2794 8.53038 42.2794 2.82322C42.2794 2.00791 41.5805 1.30908 40.7652 1.30908C35.1746 1.30908 30.5156 5.85151 30.5156 11.5587C30.6309 12.374 31.2133 13.0728 32.0298 13.0728ZM39.1335 4.455C38.5511 7.13387 36.3393 9.23038 33.6592 9.92921C34.3592 7.24918 36.4546 5.15384 39.1335 4.455Z" fill="#0B93E2"/>
<path d="M66.9718 17.3838C67.7871 17.3838 68.4859 16.685 68.4859 15.8697C68.3694 10.279 63.827 5.73657 58.2363 5.73657C57.421 5.73657 56.7222 6.43541 56.7222 7.25072C56.8375 12.8414 61.3811 17.3838 66.9718 17.3838ZM65.34 14.3555C62.6611 13.7732 60.5646 11.5602 59.8658 8.88134C62.5458 9.46254 64.7576 11.5602 65.34 14.3555Z" fill="#0B93E2"/>
<path d="M53.9258 24.72C54.7412 24.72 55.44 24.0212 55.44 23.2059C55.44 17.6152 50.8987 12.9563 45.1904 12.9563C44.3751 12.9563 43.6763 13.6551 43.6763 14.4704C43.6774 20.1788 48.2187 24.72 53.9258 24.72ZM52.2952 21.5764C49.6164 20.9941 47.5199 18.7811 46.8222 16.1022C49.5011 16.8011 51.5964 18.8964 52.2952 21.5764Z" fill="#0B93E2"/>
</svg>
