<svg width="61" height="60" viewBox="0 0 61 60" fill="none" xmlns="http://www.w3.org/2000/svg">
<path d="M32.9028 34.528L32.9028 34.528C32.8542 34.6375 32.8276 34.7554 32.8246 34.8752C32.8215 34.9949 32.8421 35.114 32.8851 35.2258C32.9282 35.3376 32.9928 35.4398 33.0753 35.5266C33.1578 35.6134 33.2566 35.6831 33.3661 35.7317C33.4755 35.7804 33.5935 35.8069 33.7132 35.81C33.8329 35.813 33.9521 35.7924 34.0639 35.7494C34.1756 35.7064 34.2778 35.6418 34.3647 35.5593C34.4515 35.4767 34.5212 35.3779 34.5698 35.2685C35.7637 32.5777 37.4839 28.9962 39.4573 26.2962M32.9028 34.528L40.0628 26.7387M32.9028 34.528C34.1037 31.8244 35.8882 28.0891 37.986 25.2205M32.9028 34.528L37.3807 24.7778M39.4573 26.2962L40.0628 26.7387M39.4573 26.2962C39.4573 26.2962 39.4573 26.2962 39.4573 26.2963L40.0628 26.7387M39.4573 26.2962C39.5999 26.101 39.6591 25.8572 39.622 25.6184C39.5849 25.3797 39.4547 25.1655 39.2598 25.0227M40.0628 26.7387C40.3227 26.383 40.4307 25.9386 40.3631 25.5033C40.2955 25.0679 40.0578 24.6773 39.7022 24.4172C39.3465 24.1573 38.9021 24.0492 38.4668 24.1169C38.0315 24.1845 37.6408 24.4222 37.3807 24.7778M39.2598 25.0227L39.7022 24.4172L39.2594 25.0225C39.2595 25.0226 39.2597 25.0226 39.2598 25.0227ZM39.2598 25.0227C39.0646 24.8801 38.8208 24.8209 38.5819 24.858C38.3431 24.8951 38.1288 25.0255 37.986 25.2205M37.986 25.2205L37.3807 24.7778M37.986 25.2205C37.986 25.2205 37.986 25.2206 37.986 25.2206L37.3807 24.7778M22.7877 26.6421L22.7879 26.642C22.9941 26.5157 23.242 26.4764 23.4771 26.5329C23.7122 26.5893 23.9153 26.7368 24.0416 26.9429L24.0417 26.943C25.6165 29.5111 27.001 32.129 27.9394 34.5707L27.9395 34.5709C28.0263 34.7966 28.0199 35.0477 27.9216 35.2687C27.8234 35.4897 27.6413 35.6627 27.4156 35.7495C27.1898 35.8364 26.9388 35.8299 26.7177 35.7317C26.4967 35.6334 26.3237 35.4514 26.2369 35.2256L26.2368 35.2254C25.3507 32.9232 24.0283 30.4095 22.4869 27.897L22.4868 27.8968C22.4241 27.7947 22.3822 27.6812 22.3634 27.5629C22.3445 27.4445 22.3492 27.3236 22.3772 27.2071C22.4051 27.0906 22.4558 26.9807 22.5262 26.8838C22.5967 26.7868 22.6855 26.7047 22.7877 26.6421Z" fill="#C2E3F7" stroke="#0B93E2" stroke-width="1.5"/>
<mask id="path-2-inside-1_749_1985" fill="white">
<path fill-rule="evenodd" clip-rule="evenodd" d="M35.7971 10.0324C39.689 5.58205 60.5 0 60.5 0C60.5 0 56.962 22.2601 53.8494 25.8197C51.5312 28.472 44.1444 26.8151 40.5249 25.7964C43.2304 21.6469 46.3662 17.5937 49.1232 14.3764C49.4045 14.0412 49.5422 13.6085 49.5064 13.1723C49.4706 12.7362 49.2642 12.3318 48.932 12.0469C48.5998 11.762 48.1687 11.6196 47.7322 11.6506C47.2957 11.6817 46.889 11.8837 46.6005 12.2127C43.8203 15.4566 40.598 19.6078 37.7763 23.9236C36.1909 20.9722 32.7194 13.5521 35.7971 10.0324ZM8.8091 39.8837H0.5V59.8255H8.8091V56.4304C10.5042 56.3606 13.0069 56.2709 13.8727 56.3058C16.8423 56.4271 19.0575 57.135 21.301 57.8513C23.3916 58.5177 25.5037 59.1924 28.2673 59.4034C28.962 59.4566 29.6383 59.5247 30.2948 59.5895C32.6595 59.8288 34.7584 60.0415 36.4934 59.4034C38.7069 58.5891 51.36 52.3955 52.942 50.7653C54.5241 49.1367 53.7331 44.7362 48.829 45.5505C46.4094 45.9526 43.6059 47.1093 41.0617 48.1579C38.451 49.2331 36.1145 50.1969 34.7518 50.1138C32.0629 49.951 24.947 48.6481 24.947 48.6481L33.1182 48.7478C33.1182 48.7478 34.2732 48.8076 35.8602 47.6693C37.4472 46.531 38.8648 43.2688 36.4917 43.2688C34.1203 43.2688 31.5893 42.4545 31.5893 42.4545L21.4655 40.1728C21.4655 40.1728 17.9857 39.5214 16.5632 40.1728C15.3899 40.7096 10.5008 42.4612 8.8091 43.0644V39.8837ZM5.28272 6.09888C5.28272 6.09888 22.4576 10.7054 25.6683 14.3764C28.1494 17.2131 25.4755 23.1209 24.1294 25.6635C22.3649 22.8932 20.4602 20.2147 18.4227 17.6386C18.2875 17.4672 18.1199 17.3242 17.9295 17.2177C17.739 17.1112 17.5294 17.0432 17.3127 17.0176C17.0959 16.9921 16.8763 17.0095 16.6663 17.0689C16.4563 17.1282 16.26 17.2283 16.0887 17.3635C15.9174 17.4987 15.7744 17.6663 15.6678 17.8568C15.5613 18.0473 15.4933 18.2568 15.4678 18.4736C15.4423 18.6903 15.4597 18.91 15.519 19.12C15.5783 19.33 15.6785 19.5262 15.8137 19.6975C17.7941 22.2016 19.6445 24.8058 21.3575 27.4998C18.2532 28.3407 12.5997 29.499 10.7717 27.4067C8.20253 24.4686 5.28272 6.09722 5.28272 6.09722"/>
</mask>
<path fill-rule="evenodd" clip-rule="evenodd" d="M35.7971 10.0324C39.689 5.58205 60.5 0 60.5 0C60.5 0 56.962 22.2601 53.8494 25.8197C51.5312 28.472 44.1444 26.8151 40.5249 25.7964C43.2304 21.6469 46.3662 17.5937 49.1232 14.3764C49.4045 14.0412 49.5422 13.6085 49.5064 13.1723C49.4706 12.7362 49.2642 12.3318 48.932 12.0469C48.5998 11.762 48.1687 11.6196 47.7322 11.6506C47.2957 11.6817 46.889 11.8837 46.6005 12.2127C43.8203 15.4566 40.598 19.6078 37.7763 23.9236C36.1909 20.9722 32.7194 13.5521 35.7971 10.0324ZM8.8091 39.8837H0.5V59.8255H8.8091V56.4304C10.5042 56.3606 13.0069 56.2709 13.8727 56.3058C16.8423 56.4271 19.0575 57.135 21.301 57.8513C23.3916 58.5177 25.5037 59.1924 28.2673 59.4034C28.962 59.4566 29.6383 59.5247 30.2948 59.5895C32.6595 59.8288 34.7584 60.0415 36.4934 59.4034C38.7069 58.5891 51.36 52.3955 52.942 50.7653C54.5241 49.1367 53.7331 44.7362 48.829 45.5505C46.4094 45.9526 43.6059 47.1093 41.0617 48.1579C38.451 49.2331 36.1145 50.1969 34.7518 50.1138C32.0629 49.951 24.947 48.6481 24.947 48.6481L33.1182 48.7478C33.1182 48.7478 34.2732 48.8076 35.8602 47.6693C37.4472 46.531 38.8648 43.2688 36.4917 43.2688C34.1203 43.2688 31.5893 42.4545 31.5893 42.4545L21.4655 40.1728C21.4655 40.1728 17.9857 39.5214 16.5632 40.1728C15.3899 40.7096 10.5008 42.4612 8.8091 43.0644V39.8837ZM5.28272 6.09888C5.28272 6.09888 22.4576 10.7054 25.6683 14.3764C28.1494 17.2131 25.4755 23.1209 24.1294 25.6635C22.3649 22.8932 20.4602 20.2147 18.4227 17.6386C18.2875 17.4672 18.1199 17.3242 17.9295 17.2177C17.739 17.1112 17.5294 17.0432 17.3127 17.0176C17.0959 16.9921 16.8763 17.0095 16.6663 17.0689C16.4563 17.1282 16.26 17.2283 16.0887 17.3635C15.9174 17.4987 15.7744 17.6663 15.6678 17.8568C15.5613 18.0473 15.4933 18.2568 15.4678 18.4736C15.4423 18.6903 15.4597 18.91 15.519 19.12C15.5783 19.33 15.6785 19.5262 15.8137 19.6975C17.7941 22.2016 19.6445 24.8058 21.3575 27.4998C18.2532 28.3407 12.5997 29.499 10.7717 27.4067C8.20253 24.4686 5.28272 6.09722 5.28272 6.09722" fill="#C2E3F7"/>
<path d="M35.7971 10.0324L34.6679 9.04495L34.6679 9.04503L35.7971 10.0324ZM60.5 0L61.9814 0.235454L62.3443 -2.04771L60.1114 -1.44879L60.5 0ZM53.8494 25.8197L52.7202 24.8323L52.72 24.8325L53.8494 25.8197ZM40.5249 25.7964L39.2684 24.9772L38.1535 26.6873L40.1185 27.2403L40.5249 25.7964ZM49.1232 14.3764L50.2622 15.3524L50.2673 15.3465L50.2723 15.3405L49.1232 14.3764ZM46.6005 12.2127L45.4726 11.2238L45.4671 11.2302L45.4616 11.2366L46.6005 12.2127ZM37.7763 23.9236L36.4549 24.6334L37.6498 26.858L39.0317 24.7444L37.7763 23.9236ZM8.8091 39.8837H10.3091V38.3837H8.8091V39.8837ZM0.5 39.8837V38.3837H-1V39.8837H0.5ZM0.5 59.8255H-1V61.3255H0.5V59.8255ZM8.8091 59.8255V61.3255H10.3091V59.8255H8.8091ZM8.8091 56.4304L8.74739 54.9317L7.3091 54.9909V56.4304H8.8091ZM13.8727 56.3058L13.9339 54.807L13.9331 54.807L13.8727 56.3058ZM21.301 57.8513L20.8448 59.2802L20.8454 59.2804L21.301 57.8513ZM28.2673 59.4034L28.3818 57.9078L28.3816 57.9078L28.2673 59.4034ZM30.2948 59.5895L30.4458 58.0972L30.4422 58.0968L30.2948 59.5895ZM36.4934 59.4034L37.0112 60.8112L37.0112 60.8112L36.4934 59.4034ZM52.942 50.7653L51.8661 49.7201L51.8656 49.7206L52.942 50.7653ZM48.829 45.5505L48.5833 44.0707L48.5831 44.0708L48.829 45.5505ZM41.0617 48.1579L41.6329 49.5449L41.6333 49.5447L41.0617 48.1579ZM34.7518 50.1138L34.8431 48.6166L34.8425 48.6166L34.7518 50.1138ZM24.947 48.6481L24.9653 47.1482L24.6769 50.1236L24.947 48.6481ZM33.1182 48.7478L33.1958 47.2498L33.1662 47.2483L33.1365 47.2479L33.1182 48.7478ZM31.5893 42.4545L32.0487 41.0266L31.9847 41.006L31.9191 40.9912L31.5893 42.4545ZM21.4655 40.1728L21.7953 38.7095L21.7685 38.7035L21.7415 38.6984L21.4655 40.1728ZM16.5632 40.1728L17.1872 41.5369L17.1877 41.5366L16.5632 40.1728ZM8.8091 43.0644H7.3091V45.1918L9.3129 44.4773L8.8091 43.0644ZM25.6683 14.3764L24.5392 15.3639L24.5392 15.3639L25.6683 14.3764ZM24.1294 25.6635L22.8643 26.4693L24.249 28.6434L25.4551 26.3653L24.1294 25.6635ZM18.4227 17.6386L17.2452 18.5678L17.2462 18.569L18.4227 17.6386ZM15.8137 19.6975L14.6362 20.6268L14.6372 20.628L15.8137 19.6975ZM21.3575 27.4998L21.7497 28.9476L23.7169 28.4148L22.6233 26.6949L21.3575 27.4998ZM10.7717 27.4067L11.9013 26.4198L11.9009 26.4193L10.7717 27.4067ZM36.9262 11.0199C37.664 10.1762 39.4153 9.10475 41.9256 7.9501C44.3587 6.83096 47.2718 5.73462 50.0948 4.76615C52.9123 3.79953 55.6132 2.96942 57.6115 2.38056C58.6099 2.08633 59.4314 1.8528 60.0023 1.69308C60.2877 1.61323 60.5104 1.55185 60.6613 1.51058C60.7366 1.48995 60.7941 1.47435 60.8323 1.46398C60.8515 1.4588 60.8658 1.45492 60.8753 1.45238C60.88 1.45111 60.8834 1.45017 60.8857 1.44957C60.8868 1.44927 60.8876 1.44906 60.8881 1.44893C60.8883 1.44886 60.8885 1.44883 60.8886 1.44879C60.8886 1.44878 60.8886 1.44879 60.5 0C60.1114 -1.44879 60.1112 -1.44874 60.1109 -1.44867C60.1107 -1.44861 60.1104 -1.44852 60.11 -1.44842C60.1092 -1.44821 60.1081 -1.44791 60.1067 -1.44754C60.1039 -1.44678 60.0998 -1.44568 60.0945 -1.44425C60.0839 -1.44139 60.0684 -1.4372 60.048 -1.43168C60.0073 -1.42065 59.9474 -1.40437 59.8694 -1.38303C59.7135 -1.34036 59.4853 -1.27746 59.194 -1.19599C58.6117 -1.03306 57.7769 -0.79572 56.7635 -0.497096C54.7381 0.0997494 51.9929 0.943308 49.1213 1.92849C46.255 2.91183 43.2356 4.04544 40.672 5.2246C38.1856 6.36825 35.8761 7.66346 34.6679 9.04495L36.9262 11.0199ZM60.5 0C59.0186 -0.235454 59.0186 -0.23545 59.0186 -0.235362C59.0186 -0.235219 59.0185 -0.235046 59.0185 -0.234762C59.0184 -0.234193 59.0182 -0.233288 59.0181 -0.232048C59.0177 -0.229569 59.017 -0.225752 59.0162 -0.220617C59.0146 -0.210347 59.0121 -0.194805 59.0088 -0.174148C59.0021 -0.132832 58.9922 -0.071057 58.979 0.00992948C58.9526 0.171907 58.9134 0.410704 58.8624 0.716333C58.7603 1.32765 58.6108 2.20602 58.4216 3.27158C58.0431 5.40388 57.5068 8.28036 56.8745 11.264C56.2411 14.253 55.5167 17.3246 54.7639 19.8561C54.3872 21.1229 54.0106 22.2299 53.6437 23.1125C53.2625 24.0295 52.942 24.5786 52.7202 24.8323L54.9786 26.8071C55.5349 26.1709 56.0059 25.2457 56.4139 24.264C56.8363 23.248 57.2468 22.0318 57.6395 20.7112C58.4255 18.0678 59.1691 14.907 59.8093 11.886C60.4506 8.85965 60.9933 5.94863 61.3755 3.79593C61.5666 2.71899 61.7179 1.83049 61.8214 1.21055C61.8732 0.90055 61.913 0.657627 61.94 0.491791C61.9535 0.408871 61.9638 0.345216 61.9707 0.302078C61.9742 0.280508 61.9768 0.264068 61.9786 0.252912C61.9795 0.247334 61.9802 0.243077 61.9807 0.240161C61.9809 0.238703 61.9811 0.23758 61.9812 0.236795C61.9813 0.236402 61.9813 0.236067 61.9813 0.23587C61.9814 0.23562 61.9814 0.235454 60.5 0ZM52.72 24.8325C52.4518 25.1394 51.9313 25.4333 51.0218 25.604C50.1283 25.7716 49.0212 25.7889 47.7964 25.6896C45.3508 25.4912 42.7078 24.8525 40.9313 24.3525L40.1185 27.2403C41.9615 27.759 44.8216 28.4581 47.5538 28.6798C48.9179 28.7904 50.3184 28.7883 51.5751 28.5525C52.8157 28.3197 54.0879 27.8262 54.9788 26.8068L52.72 24.8325ZM41.7815 26.6157C44.4452 22.53 47.54 18.5291 50.2622 15.3524L47.9842 13.4004C45.1924 16.6583 42.0155 20.7637 39.2684 24.9772L41.7815 26.6157ZM50.2723 15.3405C50.8075 14.7027 51.0694 13.8795 51.0013 13.0497L48.0114 13.295C48.0149 13.3375 48.0015 13.3796 47.9741 13.4123L50.2723 15.3405ZM51.0013 13.0497C50.9332 12.2198 50.5406 11.4504 49.9086 10.9083L47.9555 13.1854C47.9878 13.2132 48.0079 13.2526 48.0114 13.295L51.0013 13.0497ZM49.9086 10.9083C49.2766 10.3662 48.4563 10.0953 47.6258 10.1544L47.8386 13.1468C47.8811 13.1438 47.9231 13.1577 47.9555 13.1854L49.9086 10.9083ZM47.6258 10.1544C46.7952 10.2135 46.0215 10.5978 45.4726 11.2238L47.7284 13.2016C47.7565 13.1695 47.7961 13.1499 47.8386 13.1468L47.6258 10.1544ZM45.4616 11.2366C42.647 14.5206 39.384 18.7236 36.5208 23.1027L39.0317 24.7444C41.8121 20.492 44.9936 16.3926 47.7395 13.1889L45.4616 11.2366ZM39.0977 23.2137C38.3258 21.7768 37.128 19.3089 36.4912 16.8194C35.8242 14.2113 35.921 12.1694 36.9262 11.0198L34.6679 9.04503C32.5954 11.4152 32.8892 14.8431 33.5848 17.5628C34.3107 20.4011 35.6414 23.1189 36.4549 24.6334L39.0977 23.2137ZM8.8091 38.3837H0.5V41.3837H8.8091V38.3837ZM-1 39.8837V59.8255H2V39.8837H-1ZM0.5 61.3255H8.8091V58.3255H0.5V61.3255ZM10.3091 59.8255V56.4304H7.3091V59.8255H10.3091ZM8.87081 57.9291C10.6 57.8579 13.0238 57.7728 13.8123 57.8046L13.9331 54.807C12.9899 54.769 10.4083 54.8633 8.74739 54.9317L8.87081 57.9291ZM13.8114 57.8045C16.5591 57.9168 18.6031 58.5645 20.8448 59.2802L21.7572 56.4223C19.512 55.7055 17.1255 54.9374 13.9339 54.807L13.8114 57.8045ZM20.8454 59.2804C22.9355 59.9466 25.1969 60.6733 28.1531 60.899L28.3816 57.9078C25.8106 57.7114 23.8477 57.0887 21.7566 56.4221L20.8454 59.2804ZM28.1528 60.899C28.8275 60.9507 29.4856 61.0169 30.1474 61.0823L30.4422 58.0968C29.7911 58.0325 29.0965 57.9625 28.3818 57.9078L28.1528 60.899ZM30.1437 61.0819C32.3987 61.3101 34.8842 61.5935 37.0112 60.8112L35.9755 57.9956C34.6327 58.4896 32.9204 58.3476 30.4458 58.0972L30.1437 61.0819ZM37.0112 60.8112C38.2162 60.3679 42.0126 58.5732 45.6356 56.7268C47.4649 55.7944 49.2869 54.8302 50.7586 53.9914C51.4934 53.5726 52.1544 53.1774 52.6908 52.8278C53.1939 52.4999 53.6924 52.146 54.0185 51.8099L51.8656 49.7206C51.7962 49.7921 51.5532 49.9884 51.0528 50.3144C50.5859 50.6187 49.9815 50.9812 49.273 51.385C47.8581 52.1915 46.0818 53.1322 44.2734 54.0539C40.621 55.9153 36.9841 57.6246 35.9755 57.9956L37.0112 60.8112ZM54.018 51.8104C55.3167 50.4735 55.5174 48.253 54.6541 46.5603C54.197 45.6642 53.435 44.8871 52.3645 44.4186C51.3033 43.9541 50.0292 43.8307 48.5833 44.0707L49.0747 47.0302C50.0809 46.8631 50.7447 46.9844 51.1616 47.1669C51.5692 47.3453 51.8256 47.6175 51.9816 47.9233C52.3442 48.6344 52.1494 49.4284 51.8661 49.7201L54.018 51.8104ZM48.5831 44.0708C45.9604 44.5067 42.9857 45.7425 40.4901 46.771L41.6333 49.5447C44.2261 48.4761 46.8585 47.3986 49.075 47.0302L48.5831 44.0708ZM40.4905 46.7709C39.1713 47.3142 37.9838 47.8029 36.9588 48.1491C35.8866 48.5111 35.2064 48.6388 34.8431 48.6166L34.6605 51.611C35.6598 51.672 36.8293 51.3592 37.9186 50.9914C39.0553 50.6075 40.3414 50.0768 41.6329 49.5449L40.4905 46.7709ZM34.8425 48.6166C33.588 48.5406 31.2143 48.1883 29.0833 47.8396C28.0332 47.6678 27.0658 47.5009 26.3607 47.3769C26.0083 47.3149 25.7217 47.2637 25.5236 47.2281C25.4245 47.2103 25.3476 47.1964 25.2956 47.1869C25.2696 47.1822 25.2498 47.1786 25.2366 47.1762C25.23 47.175 25.2251 47.1741 25.2218 47.1735C25.2202 47.1732 25.219 47.173 25.2182 47.1728C25.2178 47.1728 25.2175 47.1727 25.2174 47.1727C25.2173 47.1727 25.2172 47.1726 25.2172 47.1726C25.2172 47.1726 25.2172 47.1726 24.947 48.6481C24.6769 50.1236 24.6769 50.1236 24.677 50.1236C24.6771 50.1236 24.6772 50.1236 24.6773 50.1237C24.6776 50.1237 24.678 50.1238 24.6784 50.1239C24.6794 50.124 24.6808 50.1243 24.6826 50.1246C24.6862 50.1253 24.6915 50.1262 24.6984 50.1275C24.7123 50.1301 24.7329 50.1338 24.7596 50.1386C24.8132 50.1484 24.8917 50.1626 24.9925 50.1807C25.194 50.217 25.4844 50.2688 25.8411 50.3316C26.5543 50.457 27.5339 50.626 28.5989 50.8002C30.698 51.1437 33.2267 51.5242 34.6611 51.6111L34.8425 48.6166ZM24.9287 50.148L33.0999 50.2477L33.1365 47.2479L24.9653 47.1482L24.9287 50.148ZM33.1182 48.7478C33.0406 50.2458 33.0414 50.2458 33.0422 50.2459C33.0424 50.2459 33.0432 50.2459 33.0437 50.246C33.0448 50.246 33.0459 50.2461 33.047 50.2461C33.0492 50.2462 33.0515 50.2463 33.0538 50.2464C33.0586 50.2466 33.0636 50.2468 33.0689 50.247C33.0795 50.2474 33.0914 50.2477 33.1044 50.248C33.1304 50.2484 33.1611 50.2485 33.1963 50.248C33.2668 50.2468 33.3552 50.2427 33.4602 50.2331C33.6701 50.2139 33.9456 50.1724 34.2734 50.0867C34.9327 49.9143 35.7869 49.5678 36.7345 48.8882L34.9859 46.4504C34.3464 46.9091 33.8296 47.1019 33.5147 47.1842C33.3554 47.2258 33.2429 47.2405 33.1868 47.2456C33.1586 47.2482 33.1445 47.2484 33.1455 47.2484C33.1461 47.2484 33.1504 47.2483 33.1587 47.2485C33.1629 47.2485 33.168 47.2487 33.1742 47.2489C33.1773 47.249 33.1806 47.2491 33.1842 47.2493C33.186 47.2494 33.1879 47.2494 33.1898 47.2495C33.1908 47.2496 33.1918 47.2496 33.1928 47.2497C33.1933 47.2497 33.194 47.2497 33.1943 47.2497C33.195 47.2498 33.1958 47.2498 33.1182 48.7478ZM36.7345 48.8882C37.8178 48.1111 38.7668 46.7133 39.1101 45.4297C39.2783 44.8007 39.3808 43.8991 38.935 43.0796C38.4156 42.1246 37.4417 41.7688 36.4917 41.7688V44.7688C36.7283 44.7688 36.467 44.8207 36.2997 44.513C36.2059 44.3407 36.2998 44.3258 36.2119 44.6547C36.1367 44.9359 35.9692 45.2966 35.7244 45.6541C35.479 46.0126 35.2088 46.2906 34.9859 46.4504L36.7345 48.8882ZM36.4917 41.7688C35.4586 41.7688 34.3511 41.5889 33.4722 41.3964C33.0396 41.3016 32.6765 41.2069 32.424 41.1367C32.298 41.1016 32.2002 41.0728 32.1358 41.0534C32.1036 41.0437 32.0798 41.0363 32.0651 41.0317C32.0577 41.0294 32.0526 41.0278 32.0499 41.0269C32.0485 41.0265 32.0477 41.0263 32.0475 41.0262C32.0474 41.0262 32.0475 41.0262 32.0477 41.0262C32.0478 41.0263 32.0479 41.0263 32.0481 41.0264C32.0482 41.0264 32.0483 41.0265 32.0484 41.0265C32.0485 41.0265 32.0487 41.0266 31.5893 42.4545C31.1299 43.8824 31.1301 43.8825 31.1303 43.8826C31.1304 43.8826 31.1306 43.8827 31.1308 43.8827C31.1311 43.8828 31.1315 43.8829 31.1319 43.8831C31.1327 43.8833 31.1337 43.8836 31.1348 43.884C31.1371 43.8847 31.14 43.8856 31.1435 43.8867C31.1504 43.889 31.1598 43.8919 31.1716 43.8956C31.1951 43.9029 31.228 43.9131 31.2696 43.9256C31.3529 43.9507 31.4714 43.9856 31.6197 44.0268C31.9158 44.1092 32.3337 44.2181 32.8302 44.3269C33.8097 44.5415 35.1534 44.7688 36.4917 44.7688V41.7688ZM31.9191 40.9912L21.7953 38.7095L21.1357 41.6361L31.2595 43.9178L31.9191 40.9912ZM21.4655 40.1728C21.7415 38.6984 21.7413 38.6984 21.7411 38.6984C21.741 38.6983 21.7408 38.6983 21.7406 38.6983C21.7403 38.6982 21.7399 38.6981 21.7394 38.698C21.7385 38.6979 21.7374 38.6977 21.736 38.6974C21.7333 38.6969 21.7298 38.6963 21.7255 38.6955C21.7168 38.6939 21.7048 38.6917 21.6897 38.689C21.6595 38.6836 21.6168 38.6761 21.563 38.6671C21.4555 38.6489 21.3029 38.6242 21.1163 38.597C20.7449 38.5427 20.2306 38.4771 19.664 38.4331C19.1021 38.3894 18.4606 38.3647 17.8424 38.4005C17.2542 38.4347 16.5484 38.5298 15.9386 38.809L17.1877 41.5366C17.2891 41.4902 17.5518 41.4224 18.0162 41.3955C18.4505 41.3703 18.9457 41.3863 19.4316 41.424C19.9127 41.4614 20.3573 41.5179 20.6828 41.5655C20.8447 41.5891 20.9751 41.6102 21.0634 41.6252C21.1075 41.6326 21.141 41.6385 21.1625 41.6423C21.1732 41.6442 21.1809 41.6456 21.1855 41.6465C21.1878 41.6469 21.1893 41.6472 21.19 41.6473C21.1903 41.6474 21.1904 41.6474 21.1904 41.6474C21.1903 41.6474 21.1902 41.6474 21.1901 41.6473C21.19 41.6473 21.1899 41.6473 21.1898 41.6473C21.1897 41.6472 21.1895 41.6472 21.4655 40.1728ZM15.9391 38.8088C14.8427 39.3104 10.045 41.0312 8.3053 41.6515L9.3129 44.4773C10.9566 43.8911 15.9371 42.1088 17.1872 41.5369L15.9391 38.8088ZM10.3091 43.0644V39.8837H7.3091V43.0644H10.3091ZM5.28272 6.09888C4.89413 7.54767 4.89409 7.54766 4.89411 7.54767C4.8942 7.54769 4.89429 7.54771 4.89448 7.54777C4.89486 7.54787 4.8955 7.54804 4.89639 7.54828C4.89818 7.54876 4.901 7.54952 4.90484 7.55055C4.91251 7.55262 4.92426 7.55579 4.93994 7.56004C4.97132 7.56854 5.01849 7.58136 5.08049 7.59832C5.20449 7.63225 5.38781 7.68277 5.62287 7.74853C6.09304 7.88006 6.76979 8.07243 7.5925 8.31485C9.23928 8.80009 11.4643 9.4839 13.7848 10.2799C16.1107 11.0777 18.5054 11.9791 20.5018 12.8972C22.5755 13.8508 23.9717 14.7151 24.5392 15.3639L26.7973 13.3889C25.7595 12.2022 23.8049 11.1141 21.7552 10.1716C19.6284 9.19346 17.1274 8.25487 14.7582 7.44218C12.3836 6.62765 10.1143 5.93039 8.44043 5.43717C7.60282 5.19037 6.9127 4.99418 6.43108 4.85945C6.19023 4.79207 6.00143 4.74004 5.87228 4.7047C5.8077 4.68703 5.75804 4.67353 5.72422 4.66437C5.70732 4.65979 5.69438 4.6563 5.68552 4.65391C5.68109 4.65272 5.67768 4.6518 5.6753 4.65116C5.67412 4.65084 5.67319 4.65059 5.67252 4.65041C5.67219 4.65032 5.67188 4.65024 5.67172 4.6502C5.67148 4.65013 5.67131 4.65009 5.28272 6.09888ZM24.5392 15.3639C25.2564 16.1839 25.3871 17.6917 24.8771 19.7733C24.3939 21.7455 23.4553 23.7309 22.8037 24.9617L25.4551 26.3653C26.1496 25.0534 27.2209 22.8137 27.7909 20.4872C28.3341 18.27 28.5612 15.4056 26.7973 13.3889L24.5392 15.3639ZM25.3946 24.8576C23.6026 22.0443 21.6683 19.3243 19.5992 16.7081L17.2462 18.569C19.252 21.1052 21.1271 23.7421 22.8643 26.4693L25.3946 24.8576ZM19.6002 16.7093C19.343 16.3834 19.0241 16.1113 18.6617 15.9086L17.1972 18.5268C17.2157 18.5372 17.2321 18.5511 17.2452 18.5678L19.6002 16.7093ZM18.6617 15.9086C18.2993 15.7059 17.9006 15.5765 17.4882 15.528L17.1371 18.5073C17.1582 18.5098 17.1786 18.5164 17.1972 18.5268L18.6617 15.9086ZM17.4882 15.528C17.0758 15.4794 16.6579 15.5125 16.2584 15.6254L17.0742 18.5123C17.0947 18.5065 17.116 18.5049 17.1371 18.5073L17.4882 15.528ZM16.2584 15.6254C15.8588 15.7383 15.4854 15.9288 15.1595 16.186L17.0179 18.541C17.0346 18.5279 17.0537 18.5181 17.0742 18.5123L16.2584 15.6254ZM15.1595 16.186C14.8335 16.4433 14.5614 16.7622 14.3587 17.1245L16.977 18.5891C16.9873 18.5705 17.0013 18.5542 17.0179 18.541L15.1595 16.186ZM14.3587 17.1245C14.156 17.4869 14.0267 17.8857 13.9781 18.298L16.9575 18.6491C16.96 18.628 16.9666 18.6076 16.977 18.5891L14.3587 17.1245ZM13.9781 18.298C13.9295 18.7104 13.9626 19.1283 14.0755 19.5279L16.9625 18.7121C16.9567 18.6916 16.955 18.6702 16.9575 18.6491L13.9781 18.298ZM14.0755 19.5279C14.1884 19.9274 14.3789 20.3008 14.6362 20.6268L16.9912 18.7683C16.978 18.7516 16.9683 18.7325 16.9625 18.7121L14.0755 19.5279ZM14.6372 20.628C16.5857 23.0918 18.4063 25.654 20.0917 28.3047L22.6233 26.6949C20.8827 23.9575 19.0025 21.3114 16.9902 18.7671L14.6372 20.628ZM20.9653 26.052C19.4482 26.4629 17.3706 26.9329 15.4878 27.0564C14.5451 27.1182 13.7177 27.0882 13.0636 26.9532C12.3976 26.8157 12.0596 26.601 11.9013 26.4198L9.64212 28.3937C10.3978 29.2586 11.452 29.6837 12.4571 29.8912C13.4743 30.1012 14.597 30.1213 15.6842 30.05C17.8613 29.9072 20.1625 29.3775 21.7497 28.9476L20.9653 26.052ZM11.9009 26.4193C11.747 26.2433 11.4956 25.8229 11.1833 25.0717C10.8853 24.3549 10.5775 23.4509 10.268 22.4101C9.64957 20.3305 9.05334 17.8032 8.53119 15.3392C8.01015 12.8805 7.56806 10.5095 7.25599 8.75149C7.10007 7.87306 6.97684 7.14902 6.8927 6.64525C6.85064 6.3934 6.81836 6.19668 6.79666 6.06333C6.78581 5.99666 6.77761 5.94584 6.77215 5.9119C6.76943 5.89494 6.76738 5.88219 6.76604 5.87379C6.76537 5.86959 6.76487 5.86648 6.76455 5.86447C6.76439 5.86347 6.76428 5.86274 6.76421 5.86229C6.76417 5.86206 6.76415 5.86193 6.76413 5.86182C6.76412 5.86176 6.76412 5.86177 5.28272 6.09722C3.80131 6.33266 3.80133 6.33281 3.80137 6.33303C3.8014 6.3332 3.80144 6.33349 3.8015 6.33382C3.8016 6.33449 3.80175 6.33544 3.80195 6.33666C3.80234 6.3391 3.8029 6.34265 3.80365 6.3473C3.80513 6.35658 3.80732 6.37023 3.81019 6.38811C3.81594 6.42387 3.82445 6.47657 3.83561 6.54517C3.85794 6.68238 3.8909 6.88322 3.93369 7.13945C4.01927 7.65184 4.14422 8.38603 4.30217 9.27582C4.61786 11.0543 5.06629 13.4598 5.59636 15.9611C6.12531 18.4573 6.74075 21.0737 7.39241 23.2652C7.71792 24.3598 8.05968 25.3731 8.41313 26.2233C8.75229 27.0392 9.15414 27.8356 9.64253 28.3941L11.9009 26.4193Z" fill="#0B93E2" mask="url(#path-2-inside-1_749_1985)"/>
</svg>
