<svg width="67" height="80" viewBox="0 0 67 80" fill="none" xmlns="http://www.w3.org/2000/svg">
<path d="M16.8404 1.18079C16.8404 1.18079 13.7018 0.794699 12.0705 5.87572C10.4396 10.9571 6.9668 12.1249 6.9668 17.5549C6.9668 22.9849 16.8404 21.6981 16.8404 21.6981C16.8404 21.6981 23.6434 20.6045 23.2536 13.7871C22.8634 6.9693 20.8303 1.18079 16.8404 1.18079Z" fill="black" stroke="#126EC3" stroke-width="0.2674" stroke-miterlimit="10"/>
<path d="M22.7913 16.6219C22.8733 13.6765 18.574 13.2257 18.0618 16.1274C18.0494 16.1966 18.0375 16.2667 18.0259 16.3371C16.8569 23.4079 17.2612 31.6074 20.2284 33.8864C21.469 34.8395 29.1975 39.2926 29.1975 39.2926L30.6001 38.0008L22.6776 29.4799L22.7913 16.6219Z" fill="#E0868F" stroke="#126EC3" stroke-width="0.2674" stroke-miterlimit="10" stroke-linecap="round" stroke-linejoin="round"/>
<path d="M14.3223 34.9617C14.3223 34.9617 16.4621 46.1015 19.1408 54.5585C19.9732 65.5326 24.1695 75.1821 24.1695 75.1821L26.5466 74.7C26.5466 74.7 26.5746 62.1563 24.9054 53.9239C24.8968 42.7836 24.3899 38.172 24.3899 38.172L23.3672 33.1272L14.3223 34.9617Z" fill="#C2E3F7" stroke="#126EC3" stroke-width="0.2674" stroke-miterlimit="10" stroke-linecap="round" stroke-linejoin="round"/>
<path d="M22.0141 34.868L17.9418 34.5923C15.3891 34.4196 11.9963 34.9895 11.4334 37.4029C11.3255 37.8648 10.9608 40.9733 10.9979 41.446C11.1269 43.0987 12.3943 47.6787 13.811 53.3881C12.6725 54.4779 11.6069 55.8435 11.1693 56.6074C6.78508 64.2621 4.87109 69.0563 4.87109 69.0563L6.67176 70.9724C6.67176 70.9724 12.8645 65.4542 18.0259 56.1463C18.1985 55.8348 18.3172 55.5101 18.3876 55.1842C19.7091 51.3591 22.0141 34.868 22.0141 34.868Z" fill="#C2E3F7" stroke="#126EC3" stroke-width="0.2674" stroke-miterlimit="10" stroke-linecap="round" stroke-linejoin="round"/>
<path d="M24.3348 30.5817C23.9689 27.406 24.17 24.2101 24.6311 21.0472C24.6612 20.8395 24.6781 20.6314 24.6781 20.4242C24.6781 16.8904 22.4818 15.0704 22.4818 15.0704V15.0778C21.6585 13.4168 19.9518 13.5153 18.0341 13.5293C15.0999 12.2754 12.6226 14.2825 12.2827 17.8999C11.1112 30.3579 10.1289 41.6634 10.1289 41.6634C15.2623 43.5164 20.3952 43.5164 25.5285 41.6634C25.5285 41.6634 24.9784 36.1675 24.3348 30.5817Z" fill="#FBF5F7"/>
<mask id="mask0_749_1842" style="mask-type:luminance" maskUnits="userSpaceOnUse" x="10" y="13" width="16" height="31">
<path d="M24.3348 30.5817C23.9689 27.406 24.17 24.2101 24.6311 21.0472C24.6612 20.8395 24.6781 20.6314 24.6781 20.4242C24.6781 16.8904 22.4818 15.0704 22.4818 15.0704V15.0778C21.6585 13.4168 19.9518 13.5153 18.0341 13.5293C15.0999 12.2754 12.6226 14.2825 12.2827 17.8999C11.1112 30.3579 10.1289 41.6634 10.1289 41.6634C15.2623 43.5164 20.3952 43.5164 25.5285 41.6634C25.5285 41.6634 24.9784 36.1675 24.3348 30.5817Z" fill="white"/>
</mask>
<g mask="url(#mask0_749_1842)">
<path d="M5.82196 33.519C5.82196 33.519 18.6364 37.4475 31.1352 33.519C31.1352 45.3643 31.1352 45.2201 31.1352 45.2201H4.87012L5.82196 33.519Z" fill="#126EC3" stroke="#126EC3" stroke-width="0.2674" stroke-miterlimit="10" stroke-linecap="round" stroke-linejoin="round"/>
</g>
<path d="M24.3348 30.5817C23.9689 27.406 24.17 24.2101 24.6311 21.0472C24.6612 20.8395 24.6781 20.6314 24.6781 20.4242C24.6781 16.8904 22.4818 15.0704 22.4818 15.0704V15.0778C21.6585 13.4168 19.9518 13.5153 18.0341 13.5293C15.0999 12.2754 12.6226 14.2825 12.2827 17.8999C11.1112 30.3579 10.1289 41.6634 10.1289 41.6634C15.2623 43.5164 20.3952 43.5164 25.5285 41.6634C25.5285 41.6634 24.9784 36.1675 24.3348 30.5817Z" stroke="#126EC3" stroke-width="0.2674" stroke-miterlimit="10" stroke-linecap="round" stroke-linejoin="round"/>
<path d="M18.0735 16.2339C17.7628 13.3038 13.442 13.4286 13.3204 16.3727C13.3176 16.4428 13.3151 16.5137 13.3126 16.5854C13.0942 23.7489 14.714 31.2631 17.2704 33.1272C18.5346 34.049 28.2578 39.3611 28.2578 39.3611L29.3476 37.7282L19.671 28.9927L18.0735 16.2339Z" fill="#E0868F" stroke="#126EC3" stroke-width="0.2674" stroke-miterlimit="10" stroke-linecap="round" stroke-linejoin="round"/>
<path d="M3.4063 73.2855C2.41572 72.3423 -0.0640055 70.5507 4.48464 68.7686L6.22968 70.5297C6.22968 70.5297 5.62232 72.1775 6.86424 74.7808C7.6764 76.4826 8.36658 77.4843 7.50704 77.5053C6.64791 77.5263 4.39687 74.2282 3.4063 73.2855Z" fill="#E0868F" stroke="#126EC3" stroke-width="0.2674" stroke-miterlimit="10" stroke-linecap="round" stroke-linejoin="round"/>
<path d="M26.4022 78.5461C25.035 78.5799 22.0147 79.0661 23.9707 74.5896L26.45 74.6011C26.45 74.6011 27.186 76.1958 29.9047 77.1583C31.6823 77.7875 32.8785 78.0076 32.2859 78.6306C31.6934 79.2528 27.7694 78.5123 26.4022 78.5461Z" fill="#E0868F" stroke="#126EC3" stroke-width="0.2674" stroke-miterlimit="10" stroke-linecap="round" stroke-linejoin="round"/>
<path d="M51.3498 38.4953C51.3498 37.942 51.0424 37.4652 50.5929 37.2114C51.0424 36.9576 51.3498 36.4808 51.3498 35.9274C51.3498 35.1103 50.6872 34.4478 49.8697 34.4478C49.0522 34.4478 48.3896 35.1103 48.3896 35.9274C48.3896 36.4808 48.697 36.9576 49.1466 37.2114C48.6966 37.4652 48.3896 37.942 48.3896 38.4953C48.3896 39.0487 48.697 39.5255 49.1466 39.7793C48.6966 40.0331 48.3896 40.5099 48.3896 41.0633C48.3896 41.6166 48.697 42.0934 49.1466 42.3472C48.6966 42.601 48.3896 43.0778 48.3896 43.6312C48.3896 44.1845 48.697 44.6613 49.1466 44.9151C48.6966 45.1689 48.3896 45.6457 48.3896 46.1991C48.3896 47.0166 49.0522 47.6792 49.8697 47.6792C50.6872 47.6792 51.3498 47.0166 51.3498 46.1991C51.3498 45.6457 51.0424 45.1689 50.5929 44.9151C51.0424 44.6613 51.3498 44.1845 51.3498 43.6312C51.3498 43.0778 51.0424 42.601 50.5929 42.3472C51.0429 42.0934 51.3498 41.6166 51.3498 41.0633C51.3498 40.5099 51.0424 40.0331 50.5929 39.7793C51.0424 39.5255 51.3498 39.0487 51.3498 38.4953Z" fill="#C2E3F7" stroke="#126EC3" stroke-width="0.2674" stroke-miterlimit="10" stroke-linecap="round" stroke-linejoin="round"/>
<path d="M21.1726 7.7959H16.6133V12.8938C16.6133 14.8255 18.7246 16.4255 20.7074 16.7102C21.0305 16.7568 21.316 16.4931 21.3107 16.1667L21.1726 7.7959Z" fill="#E0868F" stroke="#126EC3" stroke-width="0.2674" stroke-miterlimit="10" stroke-linecap="round" stroke-linejoin="round"/>
<path d="M16.791 11.5009C16.791 11.5009 18.1215 13.466 21.1728 13.3737C21.1728 12.1499 21.1728 11.3184 21.1728 11.3184L16.791 11.5009Z" fill="#126EC3"/>
<path d="M19.3503 2.08569C17.2039 2.08569 15.4477 3.84186 15.4477 5.98824V7.12839L14.6727 7.22893C14.6727 7.22893 14.1082 9.87801 15.7378 10.1092C16.3205 11.534 17.7223 12.5456 19.3503 12.5456C21.4967 12.5456 23.2528 10.7895 23.2528 8.64309V5.98824C23.2528 3.84186 21.4967 2.08569 19.3503 2.08569Z" fill="#E0868F" stroke="#126EC3" stroke-width="0.2674" stroke-miterlimit="10" stroke-linecap="round" stroke-linejoin="round"/>
<path d="M13.8662 7.66106C13.8662 7.66106 17.3402 7.94497 20.2604 3.96578C21.6898 5.96176 23.2536 6.49042 23.2536 6.49042C23.2536 6.49042 24.9463 -0.147741 17.1243 1.17412" fill="black"/>
<path d="M13.8662 7.66106C13.8662 7.66106 17.3402 7.94497 20.2604 3.96578C21.6898 5.96176 23.2536 6.49042 23.2536 6.49042C23.2536 6.49042 24.9463 -0.147741 17.1243 1.17412" stroke="#126EC3" stroke-width="0.2674" stroke-miterlimit="10"/>
<path d="M59.9121 75.1186H42.3158C42.0962 75.1186 41.8996 74.983 41.8213 74.7783C41.743 74.573 41.7995 74.3411 41.9631 74.1948L50.2432 66.7853L40.1632 57.9146C39.9436 57.7218 39.9222 57.3872 40.1154 57.1676C40.3087 56.9483 40.6437 56.9273 40.8621 57.1202L51.0377 66.0745L61.0407 57.1226C61.2582 56.9277 61.5924 56.9463 61.7877 57.1643C61.9826 57.3818 61.9641 57.7168 61.7465 57.9117L51.8379 66.7787L60.2619 74.1923C60.4271 74.3378 60.4852 74.5702 60.4073 74.7762C60.3299 74.9822 60.1325 75.1186 59.9121 75.1186ZM43.7011 74.0605H58.5103L51.0435 67.4899L43.7011 74.0605Z" fill="#333446" stroke="#126EC3" stroke-width="0.2674" stroke-miterlimit="10"/>
<path d="M43.9741 75.3535C43.9741 74.0889 42.9489 73.0637 41.6843 73.0637C40.4197 73.0637 39.3945 74.0889 39.3945 75.3535C39.3945 76.6181 40.4197 77.6433 41.6843 77.6433C42.9489 77.6433 43.9741 76.6181 43.9741 75.3535Z" fill="#126EC3" stroke="#126EC3" stroke-width="0.2674" stroke-miterlimit="10" stroke-linecap="round" stroke-linejoin="round"/>
<path d="M63.3774 75.3535C63.3774 74.0889 62.3522 73.0637 61.0876 73.0637C59.823 73.0637 58.7979 74.0889 58.7979 75.3535C58.7979 76.6181 59.823 77.6433 61.0876 77.6433C62.3522 77.6433 63.3774 76.6181 63.3774 75.3535Z" fill="#126EC3" stroke="#126EC3" stroke-width="0.2674" stroke-miterlimit="10" stroke-linecap="round" stroke-linejoin="round"/>
<path d="M29.1681 38.9869L28.4199 39.7351L40.1382 51.4534L40.8864 50.7052L29.1681 38.9869Z" fill="#333446" stroke="#126EC3" stroke-width="0.2674" stroke-miterlimit="10"/>
<path d="M26.5469 38.3671C26.5469 38.3671 27.4748 39.8905 27.9371 40.4105C28.3995 40.9305 29.4337 41.8547 29.6521 41.6648C29.8701 41.4748 28.7258 39.2901 28.7938 39.0907C28.8622 38.8912 30.2356 38.8018 30.4836 39.0536C30.7317 39.3053 30.8598 41.1484 31.1021 41.0504C31.3444 40.9523 32.0086 40.0899 31.5195 38.7116C31.0304 37.3333 28.0875 36.5903 28.0875 36.5903" fill="#E0868F"/>
<path d="M26.5469 38.3671C26.5469 38.3671 27.4748 39.8905 27.9371 40.4105C28.3995 40.9305 29.4337 41.8547 29.6521 41.6648C29.8701 41.4748 28.7258 39.2901 28.7938 39.0907C28.8622 38.8912 30.2356 38.8018 30.4836 39.0536C30.7317 39.3053 30.8598 41.1485 31.1021 41.0504C31.3444 40.9523 32.0086 40.0899 31.5195 38.7116C31.0304 37.3333 28.0875 36.5903 28.0875 36.5903" stroke="#126EC3" stroke-width="0.2674" stroke-miterlimit="10" stroke-linecap="round" stroke-linejoin="round"/>
<path d="M28.3154 39.9664C28.3154 40.7452 28.9467 41.3765 29.7255 41.3765C30.5043 41.3765 31.1355 40.7452 31.1355 39.9664C31.1355 39.1877 30.5043 38.5564 29.7255 38.5564C28.9467 38.5564 28.3154 39.1877 28.3154 39.9664Z" fill="#126EC3" stroke="#126EC3" stroke-width="0.2674" stroke-miterlimit="10" stroke-linecap="round" stroke-linejoin="round"/>
<path d="M12.6611 26.7304L19.9038 25.8127C19.9038 25.8127 18.8806 18.4452 18.6058 15.9515C18.3907 13.9988 17.8897 13.1549 16.7499 12.9105C15.9625 12.7416 15.1277 12.934 14.4816 13.4149C13.7234 13.979 12.8029 15.0664 12.3945 17.1254" fill="#FBF5F7"/>
<mask id="mask1_749_1842" style="mask-type:luminance" maskUnits="userSpaceOnUse" x="12" y="12" width="8" height="15">
<path d="M12.6611 26.7304L19.9038 25.8127C19.9038 25.8127 18.8806 18.4452 18.6058 15.9515C18.3907 13.9988 17.8897 13.1549 16.7499 12.9105C15.9625 12.7416 15.1277 12.934 14.4816 13.4149C13.7234 13.979 12.8029 15.0664 12.3945 17.1254" fill="white"/>
</mask>
<g mask="url(#mask1_749_1842)">
<path d="M10.1299 23.222L22.0147 21.8313L22.7086 26.0779L11.4126 27.3124L10.1299 23.222Z" fill="#126EC3" stroke="#126EC3" stroke-width="0.2674" stroke-miterlimit="10" stroke-linecap="round" stroke-linejoin="round"/>
</g>
<path d="M12.6611 26.7304L19.9038 25.8127C19.9038 25.8127 18.8806 18.4452 18.6058 15.9515C18.3907 13.9988 17.8897 13.1549 16.7499 12.9105C15.9625 12.7416 15.1277 12.934 14.4816 13.4149C13.7234 13.979 12.8029 15.0664 12.3945 17.1254" stroke="#C2E3F7" stroke-width="0.2674" stroke-miterlimit="10" stroke-linecap="round" stroke-linejoin="round"/>
<path d="M49.8701 34.4473V48.4439H65.5718C65.5718 34.6549 49.8701 34.4473 49.8701 34.4473Z" fill="#126EC3" stroke="#126EC3" stroke-width="0.2674" stroke-miterlimit="10" stroke-linecap="round" stroke-linejoin="round"/>
<path d="M36.2825 47.6787H65.9461C65.9461 47.6787 67.7068 61.932 51.1143 61.932C34.5218 61.932 36.2825 47.6787 36.2825 47.6787Z" fill="#126EC3"/>
<mask id="mask2_749_1842" style="mask-type:luminance" maskUnits="userSpaceOnUse" x="36" y="47" width="30" height="15">
<path d="M36.2825 47.6787H65.9461C65.9461 47.6787 67.7068 61.932 51.1143 61.932C34.5218 61.932 36.2825 47.6787 36.2825 47.6787Z" fill="white"/>
</mask>
<g mask="url(#mask2_749_1842)">
<path d="M68.7897 48.4443C68.2363 48.4443 67.7595 48.7517 67.5057 49.2013C67.2519 48.7513 66.7751 48.4443 66.2218 48.4443C65.6684 48.4443 65.1916 48.7517 64.9378 49.2013C64.684 48.7513 64.2072 48.4443 63.6539 48.4443C63.1005 48.4443 62.6237 48.7517 62.3699 49.2013C62.1161 48.7513 61.6393 48.4443 61.0859 48.4443C60.5326 48.4443 60.0558 48.7517 59.802 49.2013C59.5482 48.7513 59.0714 48.4443 58.518 48.4443C58.0141 48.4443 57.5703 48.6973 57.3033 49.0822C57.0359 48.6973 56.5921 48.4443 56.0886 48.4443C55.5352 48.4443 55.0584 48.7517 54.8046 49.2013C54.5508 48.7513 54.0741 48.4443 53.5207 48.4443C52.9673 48.4443 52.4905 48.7517 52.2367 49.2013C51.9829 48.7513 51.5061 48.4443 50.9528 48.4443C50.3994 48.4443 49.9226 48.7517 49.6688 49.2013C49.415 48.7513 48.9382 48.4443 48.3848 48.4443C47.8315 48.4443 47.3547 48.7517 47.1009 49.2013C46.8471 48.7513 46.3703 48.4443 45.8169 48.4443C45.313 48.4443 44.8692 48.6973 44.6022 49.0822C44.3352 48.6973 43.8914 48.4443 43.3875 48.4443C42.8341 48.4443 42.3573 48.7517 42.1035 49.2013C41.8497 48.7513 41.373 48.4443 40.8196 48.4443C40.2662 48.4443 39.7894 48.7517 39.5356 49.2013C39.2818 48.7513 38.805 48.4443 38.2517 48.4443C37.6983 48.4443 37.2215 48.7517 36.9677 49.2013C36.7139 48.7513 36.2371 48.4443 35.6837 48.4443C35.1304 48.4443 34.6536 48.7517 34.3998 49.2013C34.146 48.7513 33.6692 48.4443 33.1158 48.4443C32.2983 48.4443 31.6357 49.1069 31.6357 49.9244C31.6357 50.7415 32.2983 51.4045 33.1158 51.4045C33.6692 51.4045 34.146 51.0971 34.3998 50.6476C34.6536 51.0975 35.1304 51.4045 35.6837 51.4045C36.2371 51.4045 36.7139 51.0971 36.9677 50.6476C37.2215 51.0975 37.6983 51.4045 38.2517 51.4045C38.805 51.4045 39.2818 51.0971 39.5356 50.6476C39.7894 51.0975 40.2662 51.4045 40.8196 51.4045C41.373 51.4045 41.8497 51.0971 42.1035 50.6476C42.3573 51.0975 42.8341 51.4045 43.3875 51.4045C43.8914 51.4045 44.3352 51.1515 44.6022 50.7671C44.8696 51.1519 45.3134 51.4045 45.8169 51.4045C46.3703 51.4045 46.8471 51.0971 47.1009 50.6476C47.3547 51.0975 47.8315 51.4045 48.3848 51.4045C48.9382 51.4045 49.415 51.0971 49.6688 50.6476C49.9226 51.0975 50.3994 51.4045 50.9528 51.4045C51.5061 51.4045 51.9829 51.0971 52.2367 50.6476C52.4905 51.0975 52.9673 51.4045 53.5207 51.4045C54.0741 51.4045 54.5508 51.0971 54.8046 50.6476C55.0584 51.0975 55.5352 51.4045 56.0886 51.4045C56.5925 51.4045 57.0363 51.1515 57.3033 50.7671C57.5707 51.1519 58.0141 51.4045 58.518 51.4045C59.0714 51.4045 59.5482 51.0971 59.802 50.6476C60.0558 51.0975 60.5326 51.4045 61.0859 51.4045C61.6393 51.4045 62.1161 51.0971 62.3699 50.6476C62.6237 51.0975 63.1005 51.4045 63.6539 51.4045C64.2072 51.4045 64.684 51.0971 64.9378 50.6476C65.1916 51.0975 65.6684 51.4045 66.2218 51.4045C66.7751 51.4045 67.2519 51.0971 67.5057 50.6476C67.7595 51.0975 68.2363 51.4045 68.7897 51.4045C69.6072 51.4045 70.2698 50.7419 70.2698 49.9244C70.2698 49.1069 69.6072 48.4443 68.7897 48.4443Z" fill="#C2E3F7" stroke="#126EC3" stroke-width="0.2674" stroke-miterlimit="10" stroke-linecap="round" stroke-linejoin="round"/>
</g>
<mask id="mask3_749_1842" style="mask-type:luminance" maskUnits="userSpaceOnUse" x="36" y="47" width="30" height="15">
<path d="M36.2825 47.6787H65.9461C65.9461 47.6787 67.7068 61.932 51.1143 61.932C34.5218 61.932 36.2825 47.6787 36.2825 47.6787Z" fill="white"/>
</mask>
<g mask="url(#mask3_749_1842)">
<path d="M69.0918 47.4324H32.8135V49.456H69.0918V47.4324Z" fill="#FBF5F7" stroke="#C2E3F7" stroke-width="0.2674" stroke-miterlimit="10" stroke-linecap="round" stroke-linejoin="round"/>
</g>
<path d="M36.2825 47.6787H65.9461C65.9461 47.6787 67.7068 61.932 51.1143 61.932C34.5218 61.932 36.2825 47.6787 36.2825 47.6787Z" stroke="#126EC3" stroke-width="0.2674" stroke-miterlimit="10" stroke-linecap="round" stroke-linejoin="round"/>
<path d="M40.3037 75.3534C40.3037 76.1161 40.9222 76.7346 41.6849 76.7346C42.4476 76.7346 43.0661 76.1161 43.0661 75.3534C43.0661 74.5907 42.4476 73.9722 41.6849 73.9722C40.9218 73.9722 40.3037 74.5907 40.3037 75.3534Z" fill="#333446" stroke="#126EC3" stroke-width="0.2674" stroke-miterlimit="10"/>
<path d="M59.707 75.3534C59.707 76.1161 60.3255 76.7346 61.0882 76.7346C61.8509 76.7346 62.4694 76.1161 62.4694 75.3534C62.4694 74.5907 61.8509 73.9722 61.0882 73.9722C60.3255 73.9722 59.707 74.5907 59.707 75.3534Z" fill="#333446" stroke="#126EC3" stroke-width="0.2674" stroke-miterlimit="10"/>
<path d="M7.0559 74.082C6.13043 72.0646 7.32127 70.877 7.32127 70.877L4.57576 68.1431C2.73265 69.3875 1.81954 70.3228 1.37988 70.877L5.71673 75.3593L7.0559 74.082Z" fill="#126EC3" stroke="#126EC3" stroke-width="0.2674" stroke-miterlimit="10"/>
<path d="M7.06129 74.0942C7.05923 74.09 7.0584 74.0863 7.05634 74.0826L5.71718 75.36L1.38032 70.8777C1.08323 71.2518 1 71.4541 1 71.4541C1 71.4541 4.86999 75.3068 7.86191 78.2856C9.0618 77.0803 7.99706 76.1186 7.06129 74.0942Z" fill="#FBF5F7" stroke="#C2E3F7" stroke-width="0.2674" stroke-miterlimit="10" stroke-linecap="round" stroke-linejoin="round"/>
<path d="M32.8137 78.8802C32.8137 77.2192 31.4441 77.2452 29.4308 76.5249V78.2769H23.002C23.0555 78.7005 23.1309 78.8798 23.1309 78.8798C23.1309 78.8798 28.5923 78.8802 32.8137 78.8802Z" fill="#FBF5F7" stroke="#C2E3F7" stroke-width="0.2674" stroke-miterlimit="10" stroke-linecap="round" stroke-linejoin="round"/>
<path d="M29.4309 76.5247C29.3835 76.5078 29.3378 76.4925 29.2896 76.4744C27.198 75.6997 26.9656 74.0107 26.9656 74.0107H23.3301C22.8871 76.2684 22.9155 77.5927 23.0021 78.2767H29.4309V76.5247Z" fill="#126EC3" stroke="#126EC3" stroke-width="0.2674" stroke-miterlimit="10"/>
</svg>
