<svg width="60" height="67" viewBox="0 0 60 67" fill="none" xmlns="http://www.w3.org/2000/svg">
<path d="M10.134 21.3875C14.4009 27.3284 10.134 33.0054 10.134 33.0054H1.7334V23.1037L9.73392 20.3313L10.134 21.3875Z" fill="#C2E3F7"/>
<path d="M58.5332 23.1037V33.0054H50.1327C50.1327 33.0054 45.867 27.3284 50.1327 21.3875L50.5327 20.3313L58.5332 23.1037Z" fill="#C2E3F7"/>
<path d="M10.1339 57.6938V33.0057C10.1339 33.0057 14.4009 27.3287 10.1339 21.3878L9.73389 20.3316L20.6679 16.5029C22.0014 20.3316 25.7349 23.104 30.1339 23.104C34.5342 23.104 38.1344 20.3316 39.6012 16.5029L50.5353 20.3316L50.1352 21.3878C45.8696 27.3287 50.1352 33.0057 50.1352 33.0057V64.2949H10.1339V57.6938ZM41.8667 37.0984V33.0057H33.4661V37.0997C33.4661 39.3427 35.3329 41.1924 37.5998 41.1924C39.8666 41.1924 41.8667 39.3427 41.8667 37.0984Z" fill="#C2E3F7"/>
<path d="M41.8668 33.0054V37.0994C41.8668 39.3424 40 41.1921 37.7332 41.1921C35.4664 41.1921 33.5996 39.3438 33.5996 37.0994V33.0054H41.8668Z" fill="#C2E3F7"/>
<path d="M50.1327 66.0112H10.134C9.20062 66.0112 8.40056 65.219 8.40056 64.2949V34.59H1.73345C0.800057 34.59 0 33.7978 0 32.8737V22.972C0 22.3119 0.400025 21.6518 1.06674 21.3878L20 14.7867C20.4 14.6546 20.9321 14.6547 21.3334 14.9187C21.7334 15.052 22.0001 15.4468 22.1335 15.8428C23.3335 19.1434 26.4004 21.3878 29.9993 21.3878C33.5996 21.3878 36.6665 19.1434 37.8665 15.8428C38.1332 14.9187 39.0666 14.5226 40 14.7867L58.9333 21.3878C59.6 21.6518 60 22.1799 60 22.972V32.8737C60 33.7978 59.1999 34.59 58.2665 34.59H51.5994V64.2949C51.8661 65.219 51.0661 66.0112 50.1327 66.0112ZM11.8674 62.7106H48.5339V33.0057C48.5339 32.0815 49.3339 31.2894 50.2673 31.2894H56.9344V24.1602L40.668 18.4833C38.5345 22.3119 34.5343 24.6883 30.134 24.6883C25.735 24.6883 21.7348 22.3119 19.7346 18.4833L3.46821 24.1602V31.2894H10.1353C11.0687 31.2894 11.8688 32.0815 11.8688 33.0057V62.7106H11.8674Z" fill="#0B93E2"/>
<path d="M50.1328 34.5895C49.5994 34.5895 49.066 34.3255 48.7993 33.9294C47.0659 31.685 44.7991 25.8761 48.7993 20.4632C49.3327 19.671 50.3995 19.539 51.0662 20.0671C51.8662 20.5952 51.9996 21.6514 51.4662 22.3115C47.9993 27.1963 51.4662 31.8171 51.4662 31.9491C51.9996 32.7412 51.8662 33.6654 51.0662 34.1935C50.7995 34.4575 50.5341 34.5895 50.1328 34.5895Z" fill="#0B93E2"/>
<path d="M10.1339 34.5896C9.73389 34.5896 9.46721 34.4576 9.20052 34.3256C8.40047 33.7988 8.26712 32.7413 8.80049 32.0812C8.93383 31.8185 12.2674 27.3284 8.80049 22.4436C8.26712 21.6515 8.40047 20.7273 9.20052 20.1993C10.0006 19.6725 10.934 19.8032 11.4673 20.5966C15.4676 26.0095 13.2008 31.8185 11.4673 34.0616C11.2006 34.3256 10.666 34.5896 10.1339 34.5896Z" fill="#0B93E2"/>
<path d="M37.6 42.907C34.3998 42.907 31.7329 40.2666 31.7329 37.0993V33.0053C31.7329 32.0812 32.5329 31.2891 33.4663 31.2891H41.8669C42.8003 31.2891 43.6004 32.0812 43.6004 33.0053V37.0993C43.467 40.2666 40.8002 42.907 37.6 42.907ZM35.1998 34.5896V37.098C35.1998 38.4182 36.2665 39.6051 37.7333 39.6051C39.2001 39.6051 40.2655 38.5489 40.2655 37.098V34.5896H35.1998Z" fill="#0B93E2"/>
<path d="M36.7996 59.4096H10.1338C9.20045 59.4096 8.40039 58.6175 8.40039 57.6933C8.40039 56.7692 9.20045 55.9771 10.1338 55.9771H36.8009C37.7343 55.9771 38.5344 56.7692 38.5344 57.6933C38.5344 58.6175 37.733 59.4096 36.7996 59.4096Z" fill="#0B93E2"/>
<path d="M30.1329 18.087C29.1995 18.087 28.3995 17.2949 28.3995 16.3707V11.4859C28.3995 10.5618 29.1995 9.76965 30.1329 9.76965C31.9997 9.76965 33.4665 8.31609 33.4665 6.46911C33.4665 4.6208 31.9997 3.16856 30.1329 3.16856C28.2661 3.16856 26.7994 4.6208 26.7994 6.46911C26.7994 7.39326 25.9993 8.18537 25.0659 8.18537C24.1325 8.18537 23.4658 7.39323 23.4658 6.6011C23.4658 2.90448 26.3994 0 30.1329 0C33.8665 0 36.8 2.90448 36.8 6.6011C36.8 9.6376 34.6666 12.2781 31.733 12.9382V16.5027C31.8664 17.2949 31.0676 18.087 30.1329 18.087Z" fill="#0B93E2"/>
</svg>
