<svg width="94" height="87" viewBox="0 0 94 87" fill="none" xmlns="http://www.w3.org/2000/svg">
<path d="M65.3895 57.0591C65.3895 57.0591 73.9267 49.3094 75.8743 47.57C79.5923 44.2495 75.2512 40.7047 72.6563 41.3032C69.0317 42.1392 64.8027 44.8915 60.3501 47.3825C60.3501 47.3825 43.6951 52.2722 38.0303 61.014C29.9265 73.5196 47.003 83.7978 47.003 83.7978C54.3046 76.857 60.7915 72.0415 68.3866 68.5478C73.9296 65.9982 79.7462 63.4317 81.6317 62.9843C85.5625 62.0516 87.9264 54.047 89.0084 48.8553C90.0178 44.0128 92.8445 33.4747 88.6821 33.4745C84.892 33.4744 83.4182 37.3713 82.845 40.4024C82.2534 43.531 81.415 46.6076 80.2459 49.5691L80.0161 50.151L69.5134 53.3185" fill="#C2E3F7"/>
<path d="M65.3895 57.0591C65.3895 57.0591 73.9267 49.3094 75.8743 47.57C79.5923 44.2495 75.2512 40.7047 72.6563 41.3032C69.0317 42.1392 64.8027 44.8915 60.3501 47.3825C60.3501 47.3825 43.6951 52.2722 38.0303 61.014C29.9265 73.5196 47.003 83.7978 47.003 83.7978C54.3046 76.857 60.7915 72.0415 68.3866 68.5478C73.9296 65.9982 79.7462 63.4317 81.6317 62.9843C85.5625 62.0516 87.9264 54.047 89.0084 48.8553C90.0178 44.0128 92.8445 33.4747 88.6821 33.4745C84.892 33.4744 83.4182 37.3713 82.845 40.4024C82.2534 43.531 81.415 46.6076 80.2459 49.5691L80.0161 50.151L69.5134 53.3185" stroke="#126EC3" stroke-width="4" stroke-miterlimit="10"/>
<path d="M38.0276 61.0146C43.6924 52.2727 60.3473 47.3831 60.3473 47.3831C64.8 44.8922 69.0288 42.1398 72.6535 41.3037C75.2484 40.7051 79.5895 44.2502 75.8714 47.5706C73.9238 49.31 69.5107 53.319 69.5107 53.319L80.0135 50.1516L80.2432 49.5696C81.4124 46.6082 82.2507 43.5314 82.8423 40.403C83.4155 37.3719 84.8894 33.4748 88.6794 33.475C89.814 33.4752 90.4267 34.2619 90.7009 35.4992C92.2873 30.0091 91.9727 26.4838 91.9727 26.4838H91.9695C91.9826 26.175 91.9941 25.866 91.9941 25.5542C91.9941 13.0449 81.4436 2.20203 68.4289 2.20203C58.9135 2.20203 50.7211 8.32823 47.0005 16.1323H46.9958C43.2753 8.32823 35.0828 2.20203 25.5674 2.20203C12.5526 2.20203 2.0022 13.0451 2.0022 25.5542C2.0022 25.866 2.01368 26.175 2.02673 26.4838H2.0236C2.0236 26.4838 0.693198 41.3438 17.2303 57.5678C23.4175 63.7673 30.2107 69.7155 40.134 77.8959C36.5437 73.7149 33.7072 67.6815 38.0276 61.0146Z" fill="#C2E3F7" stroke="#126EC3" stroke-width="4"/>
</svg>
