<svg width="96" height="71" viewBox="0 0 96 71" fill="none" xmlns="http://www.w3.org/2000/svg">
<path d="M1.99707 13.0168V15.0168H3.99707H91.9091H93.9091V13.0168C93.9091 6.81787 88.4631 2.07593 82.1411 2.07593H13.7651C7.4431 2.07593 1.99707 6.81787 1.99707 13.0168ZM3.99707 15.4872H1.99707V17.4872V57.7209C1.99707 63.9198 7.4431 68.6617 13.7651 68.6617H82.1411C88.4631 68.6617 93.9091 63.9198 93.9091 57.7209V17.4872V15.4872H91.9091H3.99707ZM45.9261 55.7209H15.7921C16.0752 53.0755 18.5559 50.7801 21.9 50.7801H39.8182C43.1712 50.7801 45.6433 53.0829 45.9261 55.7209ZM30.8591 28.428C32.9736 28.428 34.9698 29.1985 36.4158 30.522C37.8558 31.8401 38.6271 33.588 38.6271 35.3688C38.6271 37.1497 37.8558 38.8975 36.4158 40.2157C34.9698 41.5392 32.9736 42.3097 30.8591 42.3097C28.7446 42.3097 26.7484 41.5392 25.3024 40.2157C23.8624 38.8976 23.0911 37.1497 23.0911 35.3688C23.0911 33.588 23.8624 31.8401 25.3024 30.522C26.7484 29.1985 28.7446 28.428 30.8591 28.428ZM59.7211 28.6632C59.7211 28.6612 59.7212 28.6589 59.7216 28.6562C59.7223 28.6517 59.724 28.6458 59.7279 28.6373C59.7353 28.6215 59.7527 28.593 59.7888 28.5599C59.8633 28.4918 59.9922 28.428 60.1631 28.428H79.6991C79.8701 28.428 79.999 28.4918 80.0734 28.5599C80.1096 28.593 80.127 28.6215 80.1343 28.6373C80.1407 28.651 80.1411 28.6578 80.1411 28.6632C80.1411 28.6686 80.1407 28.6755 80.1343 28.6891C80.127 28.7049 80.1096 28.7334 80.0734 28.7665C79.999 28.8347 79.8701 28.8984 79.6991 28.8984H60.1631C59.9922 28.8984 59.8633 28.8347 59.7888 28.7665C59.7527 28.7334 59.7353 28.7049 59.7279 28.6891C59.7216 28.6755 59.7211 28.6686 59.7211 28.6632ZM59.7211 37.604C59.7211 37.5987 59.7216 37.5918 59.7279 37.5782C59.7353 37.5624 59.7527 37.5338 59.7888 37.5007C59.8633 37.4326 59.9922 37.3688 60.1631 37.3688H79.6991C79.8701 37.3688 79.999 37.4326 80.0734 37.5007C80.1096 37.5338 80.127 37.5624 80.1343 37.5782C80.1407 37.5918 80.1411 37.5987 80.1411 37.604C80.1411 37.6094 80.1407 37.6163 80.1343 37.6299C80.127 37.6457 80.1096 37.6742 80.0734 37.7074C79.999 37.7755 79.8701 37.8393 79.6991 37.8393H60.1631C59.9922 37.8393 59.8633 37.7755 59.7888 37.7074C59.7526 37.6742 59.7353 37.6457 59.7279 37.6299C59.7216 37.6163 59.7211 37.6094 59.7211 37.604ZM59.7211 46.5449C59.7211 46.5395 59.7216 46.5326 59.7279 46.519C59.7353 46.5032 59.7526 46.4747 59.7888 46.4416C59.8633 46.3734 59.9922 46.3097 60.1631 46.3097H79.6991C79.8701 46.3097 79.999 46.3734 80.0734 46.4416C80.1096 46.4747 80.127 46.5032 80.1343 46.519C80.1407 46.5326 80.1411 46.5395 80.1411 46.5449C80.1411 46.5503 80.1407 46.5571 80.1343 46.5708C80.127 46.5865 80.1096 46.6151 80.0734 46.6482C79.999 46.7163 79.8701 46.7801 79.6991 46.7801H60.1631C59.9922 46.7801 59.8633 46.7163 59.7888 46.6482C59.7526 46.6151 59.7353 46.5865 59.7279 46.5708C59.7216 46.5571 59.7211 46.5503 59.7211 46.5449Z" fill="#C2E3F7" stroke="#126EC3" stroke-width="4"/>
</svg>
