<svg width="98" height="88" viewBox="0 0 98 88" fill="none" xmlns="http://www.w3.org/2000/svg">
<path d="M56.3127 18.0312L56.2967 19.1316L57.2176 19.7341C60.8781 22.1287 63.4626 26.192 63.9336 30.9292L64.0439 32.0394L65.0466 32.5287C66.9977 33.481 69.181 34.0345 71.501 34.0345C79.9751 34.0345 86.6996 26.8956 86.6996 18.2677C86.6996 9.6386 79.9753 2.50085 71.501 2.50085C63.1041 2.50085 56.4369 9.51385 56.3127 18.0312Z" fill="#C2E3F7" stroke="#126EC3" stroke-width="4"/>
<path d="M35.367 31.0863L34.6178 31.5789C32.276 33.1186 29.4966 34.0337 26.4988 34.0337C18.0235 34.0337 11.2988 26.8949 11.2988 18.2668C11.2988 9.63875 18.0235 2.5 26.4988 2.5C34.9696 2.5 41.6968 9.63907 41.6964 18.2668L35.367 31.0863ZM35.367 31.0863L35.4977 30.1993M35.367 31.0863L35.4977 30.1993M35.4977 30.1993C36.0725 26.2975 38.0757 22.8986 40.9193 20.5933L41.6116 20.0321M35.4977 30.1993L41.6116 20.0321M41.6116 20.0321L41.6572 19.1421M41.6116 20.0321L41.6572 19.1421M41.6572 19.1421C41.6589 19.1078 41.6619 19.0604 41.6656 19.0037M41.6572 19.1421L41.6656 19.0037M41.6656 19.0037C41.6777 18.8134 41.6964 18.5189 41.6964 18.2669L41.6656 19.0037Z" fill="#C2E3F7" stroke="#126EC3" stroke-width="4"/>
<path d="M64.8639 32.4809C64.8639 23.8514 58.1368 16.7115 49.6629 16.7115C41.1891 16.7115 34.4629 23.8516 34.4629 32.4809C34.4629 41.1092 41.1899 48.2478 49.6629 48.2478C58.1365 48.2478 64.8639 41.109 64.8639 32.4809Z" fill="#C2E3F7" stroke="#126EC3" stroke-width="4"/>
<path d="M65.9863 30.9735H64.0385L63.987 32.9206C63.8779 37.0398 62.1951 40.7309 59.5502 43.3774L57.2089 45.7202L60.3723 46.7014C67.7975 49.0046 73.309 56.23 73.309 64.8375V69.2399V71.3181L75.3857 71.2384C86.7251 70.8032 93.3433 67.4494 93.9573 67.1254L93.9597 67.1242L94.403 66.8895H95.9983V64.8895V50.6017C95.9983 50.6016 95.9983 50.6016 95.9983 50.6015C95.9994 39.8578 87.6009 30.9735 77.0999 30.9735H65.9863Z" fill="#C2E3F7" stroke="#126EC3" stroke-width="4"/>
<path d="M38.9478 46.7017L42.1102 45.7201L39.7696 43.3779C37.1373 40.7438 35.4586 37.0721 35.335 32.979L35.2809 31.1863L33.4929 31.0455C33.4715 31.0438 33.4498 31.0421 33.4278 31.0404C33.0466 31.0102 32.5822 30.9735 32.0966 30.9735H20.8996C10.3973 30.9735 1.99805 39.8577 1.99805 50.6015V64.891V65.0433L2.02111 65.1939L2.05493 65.4146L2.24079 66.6279L3.40675 67.0116L4.34966 67.3218L4.35513 67.3236C11.6541 69.702 18.1904 70.8016 23.886 71.1496L26.008 71.2793V69.1533V64.8403C26.008 64.8401 26.008 64.8399 26.008 64.8397C26.0108 56.2298 31.519 49.0076 38.9478 46.7017Z" fill="#C2E3F7" stroke="#126EC3" stroke-width="4"/>
<path d="M25.1582 79.1038V79.2633L71.1823 79.5708L72.1191 81.3378L72.1202 81.3372C72.1209 81.3368 72.1217 81.3364 72.1224 81.3361L72.5605 81.1038H74.1569V79.1038V64.8149C74.1569 64.8147 74.1569 64.8145 74.1569 64.8143C74.1597 54.0713 65.7606 45.1881 55.2603 45.1881H44.0608C33.5579 45.1881 25.1582 54.0732 25.1582 64.8143V79.1038Z" fill="#C2E3F7" stroke="#126EC3" stroke-width="4"/>
</svg>
