<svg width="96" height="96" viewBox="0 0 96 96" fill="none" xmlns="http://www.w3.org/2000/svg">
<path d="M48 3C23.1465 3 3 23.1465 3 48C3 72.8535 23.1465 93 48 93C72.8535 93 93 72.8535 93 48C93 23.1465 72.8535 3 48 3Z" fill="#C2E3F7" stroke="#126EC3" stroke-width="5" stroke-linecap="round" stroke-linejoin="round"/>
<path d="M13.2207 76.557C13.2207 76.557 23.2512 63.75 48.0012 63.75C72.7512 63.75 82.7862 76.557 82.7862 76.557M48.0012 48C51.5816 48 55.0154 46.5777 57.5471 44.0459C60.0789 41.5142 61.5012 38.0804 61.5012 34.5C61.5012 30.9196 60.0789 27.4858 57.5471 24.9541C55.0154 22.4223 51.5816 21 48.0012 21C44.4208 21 40.987 22.4223 38.4553 24.9541C35.9235 27.4858 34.5012 30.9196 34.5012 34.5C34.5012 38.0804 35.9235 41.5142 38.4553 44.0459C40.987 46.5777 44.4208 48 48.0012 48Z" fill="#C2E3F7"/>
<path d="M13.2207 76.557C13.2207 76.557 23.2512 63.75 48.0012 63.75C72.7512 63.75 82.7862 76.557 82.7862 76.557M48.0012 48C51.5816 48 55.0154 46.5777 57.5471 44.0459C60.0789 41.5142 61.5012 38.0804 61.5012 34.5C61.5012 30.9196 60.0789 27.4858 57.5471 24.9541C55.0154 22.4223 51.5816 21 48.0012 21C44.4208 21 40.987 22.4223 38.4553 24.9541C35.9235 27.4858 34.5012 30.9196 34.5012 34.5C34.5012 38.0804 35.9235 41.5142 38.4553 44.0459C40.987 46.5777 44.4208 48 48.0012 48Z" stroke="#126EC3" stroke-width="5" stroke-linecap="round" stroke-linejoin="round"/>
</svg>
