<svg width="104" height="95" viewBox="0 0 104 95" fill="none" xmlns="http://www.w3.org/2000/svg">
<path d="M84.8555 44.4387C84.8555 47.4674 87.311 49.9225 90.3398 49.9225C93.3685 49.9225 95.8238 47.4674 95.8238 44.4387C95.8238 41.4099 93.3685 38.9548 90.3398 38.9546C87.311 38.9546 84.8555 41.4099 84.8555 44.4387Z" fill="#C2E3F7" stroke="#126EC3" stroke-width="4"/>
<path d="M78.7827 67.5795C80.3094 60.8274 84.9061 55.9224 90.3397 55.9224C95.7897 55.9224 100.398 60.8569 101.91 67.6407C102.022 68.1437 102.163 69.3277 101.416 70.0469C100.153 71.431 97.2113 73.9494 90.54 73.8793C84.2165 73.8128 81.0311 71.6037 79.5473 70.2335C78.507 69.3773 78.6648 68.1019 78.7827 67.5795Z" fill="#C2E3F7" stroke="#126EC3" stroke-width="4"/>
<path d="M84.9997 18.8058C83.1024 16.7021 80.3406 15.17 77.2224 14.4931C76.212 14.2746 75.1611 14.143 74.1003 14.1049C72.7851 14.0575 71.4999 14.1544 70.2683 14.3763C70.8858 15.9487 71.2605 17.5788 71.3852 19.2492C71.7248 23.8276 70.0978 28.3628 66.8035 32.02C65.9455 32.9722 64.9836 33.8537 63.9355 34.6572C65.48 35.6766 67.2862 36.4318 69.231 36.8542C70.2436 37.0741 71.293 37.2042 72.3531 37.242C74.7907 37.3303 77.2383 36.9194 79.43 36.0539L79.6724 35.959L79.8099 36.1806C80.7909 37.7653 82.6367 39.0476 84.3043 39.7377C83.1312 38.3234 82.4631 36.1251 82.7961 34.3325L82.8192 34.2128L82.9177 34.1387C85.7464 32.0549 87.4309 29.2288 87.6583 26.1801C87.8532 23.546 86.9096 20.9273 84.9997 18.8058Z" fill="#C2E3F7" stroke="#126EC3" stroke-width="4"/>
<path d="M28.8914 49.6015C28.8914 54.3522 25.0399 58.2031 20.2896 58.2031C15.5386 58.2031 11.6875 54.3522 11.6875 49.6015C11.6875 44.8507 15.5388 40.9996 20.2896 40.9995C25.0399 40.9995 28.8914 44.8507 28.8914 49.6015Z" fill="#C2E3F7" stroke="#126EC3" stroke-width="4"/>
<path d="M38.4176 82.488C36.0228 71.8969 28.8129 64.2031 20.2901 64.2031C11.7413 64.2031 4.51349 71.9432 2.14101 82.5839C1.96511 83.3729 1.74447 85.2301 2.91707 86.3582C4.89756 88.5292 9.51136 92.4796 19.9758 92.3696C29.8944 92.2653 34.891 88.8002 37.2181 86.6509C38.8503 85.3078 38.6025 83.3074 38.4176 82.488Z" fill="#C2E3F7" stroke="#126EC3" stroke-width="4"/>
<path d="M53.4003 37.7021C51.8121 38.0469 50.1664 38.251 48.5034 38.3104C44.6798 38.4488 40.8404 37.8043 37.4029 36.4468L37.0226 36.2978L36.8071 36.6455C35.2685 39.1312 32.3731 41.1424 29.7573 42.2249C31.5974 40.0065 32.6453 36.5583 32.1231 33.7465L32.0869 33.5589L31.9322 33.4426C27.4953 30.174 24.8532 25.7411 24.4965 20.959C24.1908 16.8275 25.6708 12.7199 28.6668 9.3922C31.6428 6.09237 35.9746 3.68915 40.8656 2.62742C42.4503 2.28481 44.0989 2.07846 45.7626 2.01849C58.2518 1.56947 69.0204 9.35358 69.7677 19.3704C70.0742 23.5013 68.5942 27.6087 65.5987 30.9345C62.6226 34.2372 58.2903 36.6398 53.4003 37.7021Z" fill="#C2E3F7" stroke="#126EC3" stroke-width="4"/>
</svg>
