<svg width="89" height="89" viewBox="0 0 89 89" fill="none" xmlns="http://www.w3.org/2000/svg">
<path d="M44.4305 80.045H5V11.2521H11.5351V3H50.2282V24.2562H69.539V41.5225L44.4305 80.045Z" fill="#C2E3F7"/>
<path d="M58.2479 74.7843C67.4997 74.7843 74.9997 67.2843 74.9997 58.0325C74.9997 48.7808 67.4997 41.2808 58.2479 41.2808C48.9961 41.2808 41.4961 48.7808 41.4961 58.0325C41.4961 67.2843 48.9961 74.7843 58.2479 74.7843Z" fill="#C2E3F7"/>
<path d="M43.7852 57.0328C43.7852 50.1621 49.3764 44.5708 56.2472 44.5708C63.1207 44.5708 68.7092 50.1621 68.7092 57.0328C68.7092 63.9036 63.1179 69.4949 56.2472 69.4949C49.3764 69.4949 43.7852 63.9036 43.7852 57.0328Z" fill="#126EC3"/>
<path d="M56.9531 62.4736C56.9531 59.0038 59.7763 56.1807 63.2461 56.1807C66.7158 56.1807 69.539 59.0038 69.539 62.4736C69.539 65.9434 66.7158 68.7665 63.2461 68.7665C59.7763 68.7665 56.9531 65.9434 56.9531 62.4736Z" fill="#C2E3F7"/>
<path d="M52.6855 8.03027V19.51C52.6855 21.0261 53.9183 22.2616 55.4372 22.2616H66.9169L52.6855 8.03027Z" fill="#C2E3F7"/>
<path d="M19.4686 16.6874H41.7184V22.2498H19.4686V16.6874ZM19.4686 63.9682H30.5935V58.4058H19.4686V63.9682ZM19.4686 36.156H44.4996V33.3747V30.5935H19.4686V36.156ZM19.4686 50.0621H33.3747V44.4996H19.4686V50.0621ZM44.4996 80.6556V83.4368V86.218H8.34368C3.74353 86.218 0 82.4745 0 77.8744V16.6874C0 12.0872 3.74353 8.34368 8.34368 8.34368V5.56245C8.34368 2.4892 10.8357 0 13.9061 0H50.5405C52.0145 0 53.4302 0.586856 54.4731 1.62982L73.4661 20.62C74.5091 21.663 75.0959 23.0786 75.0959 24.5527V33.3747H69.5335V27.8123H55.6273C51.0272 27.8123 47.2836 24.0687 47.2836 19.4686V5.56245H13.9089V72.3119H36.1587V77.8744H13.9089C10.8384 77.8744 8.34646 75.3824 8.34646 72.3119V13.9061C6.81122 13.9061 5.56524 15.1549 5.56524 16.6874V77.8744C5.56524 79.4096 6.81122 80.6556 8.34646 80.6556H44.4996ZM52.8433 7.86532V19.4686C52.8433 21.001 54.0893 22.2498 55.6246 22.2498H67.2278L52.8433 7.86532ZM50.0621 58.4058C50.0621 53.8056 53.8057 50.0621 58.4058 50.0621C59.9438 50.0621 61.187 48.8161 61.187 47.2809C61.187 45.7456 59.9438 44.4996 58.4058 44.4996C50.738 44.4996 44.4996 50.7379 44.4996 58.4058C44.4996 59.9438 45.7429 61.187 47.2809 61.187C48.8161 61.187 50.0621 59.941 50.0621 58.4058ZM88.1844 84.2517C89.2719 85.3392 89.2719 87.0969 88.1844 88.1844C87.6421 88.7267 86.9301 88.9993 86.2181 88.9993C85.5061 88.9993 84.7941 88.7267 84.2517 88.1844L72.0282 75.9609C68.2597 78.8923 63.5399 80.6556 58.4058 80.6556C46.1378 80.6556 36.156 70.6738 36.156 58.4058C36.156 46.1378 46.1378 36.156 58.4058 36.156C70.6738 36.156 80.6556 46.1378 80.6556 58.4058C80.6556 63.5399 78.8923 68.2569 75.9609 72.0255L88.1844 84.2517ZM75.0932 58.4058C75.0932 49.2055 67.6061 41.7184 58.4058 41.7184C49.2055 41.7184 41.7184 49.2055 41.7184 58.4058C41.7184 67.6061 49.2055 75.0931 58.4058 75.0931C67.6061 75.0931 75.0932 67.6061 75.0932 58.4058Z" fill="#126EC3"/>
</svg>
